<svg enable-background="new 0 0 710.9 760.9" viewBox="0 0 710.9 760.9" xmlns="http://www.w3.org/2000/svg"><g fill="#ff86a2" transform="matrix(.53 -.848 .848 .53 -188.119 793.644)"><path d="m924 259.5c-27-3.7-52.3 9.9-78.4 15.2-12 2-24.2 3-36.3 4.4-12.3.3-24.5-.2-36.7-1.5-23.3-4.6-44.6-18.2-61.9-33.6-14.3-14.3-27.1-32.6-41.5-47.2-52.3-55.9-60.1-54.3-131.9-71.8-48.9-12.1-80.5-33.2-108.8-75.6-14.2-20-35.6-35.3-61.4-35.1-48 4.9-38 48.6-21.4 80.6 12.2 21.9 26.8 41.5 38.4 62.9 13.1 22.7 23.8 47 30.2 72.4 12.3 45.1 12.4 92.4 16.3 138.5 3.1 33.3 9.7 74.3 45.6 87.6 45.3 14.6 93.6 14.8 140.6 12.1-.4 0-.8.1-1.2.1 1.6-.2 3.2-.3 4.9-.5h-.3c.4 0 .8 0 1.1-.1 74.7-6.8 149.6-24.5 214.3-63.5 32.5-18.6 99.2-66.8 107.1-103.9 1.5-8.3 3.5-17.8.1-25.6-4.2-7.3-10.1-13.7-18.8-15.4z"/><path d="m620 468h.3c-.1 0-.2 0-.3 0z"/><path d="m621.9 467.8-.5.1z"/></g></svg>