<svg enable-background="new 0 0 665.2 627" viewBox="0 0 665.2 627" xmlns="http://www.w3.org/2000/svg"><g fill="#ff86a2" transform="matrix(-.407 .914 -.914 -.407 813.389 -112.316)"><path d="m933.2 337.9c-31.6-4.3-61.3 11.6-92 17.8-14.1 2.4-28.4 3.5-42.6 5.2-14.4.3-28.8-.2-43.1-1.7-27.4-5.5-52.3-21.3-72.6-39.4-16.8-16.8-31.7-38.3-48.7-55.4-61.4-65.6-70.5-63.8-154.7-84.2-57.3-14.2-94.5-38.9-127.7-88.7-16.7-23.5-41.7-41.4-72-41.2-56.3 5.8-44.6 57-25.1 94.6 14.3 25.7 31.4 48.7 45 73.8 15.4 26.6 27.9 55.1 35.4 84.9 14.4 52.9 14.6 108.4 19.2 162.5 3.6 39.1 11.3 87.1 53.5 102.8 53.2 17.1 109.8 17.3 165 14.1-.4 0-.9.1-1.4.1 1.9-.2 3.8-.4 5.7-.6h-.4c.4 0 .9 0 1.3-.1 87.6-7.9 175.5-28.8 251.4-74.5 38.1-21.8 116.4-78.4 125.7-121.9 1.8-9.7 4.1-20.8.1-30.1-5-8.4-11.8-15.9-22-18z"/><path d="m576.4 582.6h.4c-.1 0-.2 0-.4 0z"/><path d="m578.7 582.4-.6.1z"/></g></svg>