<svg enable-background="new 0 0 360.1 570" viewBox="0 0 360.1 570" xmlns="http://www.w3.org/2000/svg" xmlns:xlink="http://www.w3.org/1999/xlink"><clipPath id="a"><path d="m340.2 142.5c-1.2-11.7-7.5-22.3-10-33.7-7.8-29.3-13.7-58.4-1.9-87.5 13.6-32.1-18.4-22.4-31.4-6.6-12.3 11.5-26.1 21.1-41.1 28.7-4.8 2.4-9.8 4.3-15 5.8-27.7 8.3-57 10.3-85.6 6-20.4-3.9-40.8-7.7-61.1-12.1-18.1-4.2-36.6-8.1-55.1-4-18.2 3-36.4 16-39 35.2.6 11.5 8.2 21 13.4 30.8 11.2 19.9 18.6 34 42.5 39.4 20 5 41 .6 59.7-7.1 18.7-8.8 37.2-18.7 56.7-25.4 5.2-1.8 10.6-3.2 16-4.2 6.6-1.1 13.3-1.9 19.9-2.3 2.7-.2 5.5-.2 8.2-.1 14.8.7 29.4 3.3 44.3 5 4.3.6 8.5 1.4 12.8 2.4 16.4 3.7 31.4 12 43.3 23.8l.2.2v-.1c5.9 7.6 20.2 25.4 23.2 5.8z"/></clipPath><text fill="#fff" font-family="'Tajawal-Regular'" font-size="25" transform="translate(114.269 510)">أهلاً بكم في</text><text fill="#fff" font-family="'Tajawal-Medium'" font-size="31" transform="translate(9.774 558)">تطبيق عيادة فايا للتجميل</text><g transform="translate(-5426.838 -1767.484)"><path d="m5745.3 1936.1c-1.9-47.6-22.4-95.6-57.7-128-42.1-36.3-103.7-50.8-156.8-33.1-18 6-31.3 18.1-44.6 31.4-16.4 11.3-31.4 26.1-40.8 43.8-22.4 47.1-28.7 84.8 4.9 128.5 20.3 28.1 48.3 52.6 81.6 63.3 41.3 14 87.7 13.6 127.7-4.5 50.1-18.8 87.1-42 85.7-101.4z" fill="#fff"/><g transform="translate(5446.771 2024.096)"><path d="m340.2 142.5c-1.2-11.7-7.5-22.3-10-33.7-7.8-29.3-13.7-58.4-1.9-87.5 13.6-32.1-18.4-22.4-31.4-6.6-12.3 11.5-26.1 21.1-41.1 28.7-4.8 2.4-9.8 4.3-15 5.8-27.7 8.3-57 10.3-85.6 6-20.4-3.9-40.8-7.7-61.1-12.1-18.1-4.2-36.6-8.1-55.1-4-18.2 3-36.4 16-39 35.2.6 11.5 8.2 21 13.4 30.8 11.2 19.9 18.6 34 42.5 39.4 20 5 41 .6 59.7-7.1 18.7-8.8 37.2-18.7 56.7-25.4 5.2-1.8 10.6-3.2 16-4.2 6.6-1.1 13.3-1.9 19.9-2.3 2.7-.2 5.5-.2 8.2-.1 14.8.7 29.4 3.3 44.3 5 4.3.6 8.5 1.4 12.8 2.4 16.4 3.7 31.4 12 43.3 23.8l.2.2v-.1c5.9 7.6 20.2 25.4 23.2 5.8z" fill="#fff"/><g clip-path="url(#a)"><g fill="#fff" transform="translate(23.536 -76.57)"><path d="m287.7 180.3 2.1-6.9c4.1-.5 3.8-.3 5.1 2.2.9 1.9.6 4.2-.7 5.9-2.7 2.7-4.6.8-6.5-1.2z"/><path d="m103.9 169.3c.5-1.1 1-2.1 1.6-3.1.2-.3 1.1-.2 1.6 0 1.9.8 2.7 5.4 1.3 6.9-1 1.1-3.3.6-3.9-1-.2-1-.5-1.9-.6-2.8z"/><path d="m103.8 152.8c.1.4.2.9.4 1.7l1.1-1.7c.4 1.6 1 2.9 1 4.2-.1 1.2-.7 2.3-1.5 3.2-.8.4-1.7.3-2.4-.2-1.4-1.2-1.1-2.9-.6-4.4.5-1.1 1-2.1 1.6-3.1z"/><path d="m2.8 145.4c.6-.3 1.2-.5 1.9-.8 2.6 2 3.6 3.8 2.9 5.3-.7 1.3-2.3 1.8-3.6 1.1-.9-.6-1.5-1.5-1.7-2.6-.3-.9.2-2 .5-3z"/><path d="m204.5 121.6-1.5-1.1c-2 1.4-3.1.5-3.5-2.3 1-.6 1.9-1.1 2.8-1.7 1.1-.7 3 .6 3 2.2-.1 1-.4 2-.8 2.9z"/><path d="m87.4 199.8c-.5.6-1 1.7-1.6 1.8-1 .1-1.9-.7-2-1.8 0-.1 0-.2 0-.2 0-.9.1-2 1.4-1.9 1.2.1 2.2.4 2.2 2.1z"/><path d="m149.2 164 1.9-2.3c.6.5 1.4 1 1.7 1.6.2.5-.3 1.8-.6 1.9-.9 0-1.8-.2-2.7-.5z"/><path d="m132.3 189.5c-1.2-2.7-1.1-3 1.2-4.2.4.7 1.3 1.5 1.3 2.3 0 1.2-1 1.8-2.5 1.9z"/><path d="m144.2 173.4c1.6 1.2 2.2 2.8 1.3 3.8-.5.3-1.1.4-1.7.2-1.7-1.1-1.6-1.4.4-4z"/><path d="m112.9 186.9c-.5-.6-1.1-1.1-1.2-1.8-.1-.8 0-1.6.3-2.4.1-.2 1.5-.2 1.8.1.6.5.7 1.4.1 2-.1.1-.2.2-.3.3-.4.4-.5 1.1-.7 1.8z"/><path d="m248.5 146.2-1 1.1c-.7-.9-1.4-1.8-2-2.7-.1-.1.9-1.1 1.1-1 1.2.2 2 1.4 1.9 2.6z"/><path d="m32.9 174.8 1.6-2.1c.6.6 1.5 1.2 1.6 1.8.1.5-.9 1.2-1.5 1.6-.2.2-.9-.6-1.7-1.3z"/><path d="m44.6 142 1.6-1.7c.5.6 1.3 1.2 1.4 1.8.1.5-.8 1.1-1.3 1.6-.5-.5-1-1-1.7-1.7z"/><path d="m109.5 177.8c2.3.9 2.3 2.2 1.6 4-.6-.3-1.7-.4-1.7-.8-.1-1-.1-2.1.1-3.2z"/><path d="m32.9 194c-.6.5-1.4 1-2.1 1.3-.9.2-1.7-.4-1.4-1.4.3-.7.8-1.3 1.5-1.6.3-.1 1 .8 2 1.7z"/><path d="m108.2 200.6c.4.3 1 .4 1.3.8.3.5.7 1.3.5 1.7-.3.5-1.1.7-1.7 1.1-.2-.7-.4-1.5-.5-2.2 0-.4.2-.9.4-1.4z"/><path d="m213.5 181 1.7-1.3c.3.4.9.9.9 1.3-.1.8-.3 1.7-.5 2.5-.6-.6-1.3-1.2-1.8-1.8-.2-.1-.2-.4-.3-.7z"/><path d="m116.5 183.7c-.4-.8-.8-1.6-1-2.5-.1-.2.6-.9.8-.9.8.4 1.5.9 2.2 1.3l-1.3 1.9z"/><path d="m0 220.9c0-.6.1-1.2.1-1.8 0-.5-.1-1-.1-1.6 0-.4.1-.7.2-1.1.2-.2.5-.2.7-.2.2.3.4.7.4 1 .1.6.2 1.3.4 1.8.4 1.3 0 1.8-1.7 1.9z"/><path d="m56.8 148.1c-.9.7-1.3 1.3-1.9 1.4-.3.1-1.3-.9-1.2-1.1.2-.6.7-1.2 1.3-1.5.3 0 1 .7 1.8 1.2z"/><path d="m1.9 132.8c1.1.6 1.9 1.4 1.3 2.6-.2.4-1.4.7-1.7.4-1-.9-.7-2 .4-3z"/><path d="m59.7 198.2c0 2.2-2.2 1.2-3 2.5 0-2.4 1.4-3.3 3-2.5z"/><path d="m59.7 145.9c-.4-1.2-.7-2.2.7-2.6.5 0 1 .3 1.3.8.2 1.3-.7 1.7-2 1.8z"/><path d="m128.4 144.1-2.9 1.7c-.1-.6-.3-1.8-.2-1.8 1-.3 2-.5 3-.6z"/><path d="m279.8 164.6c.5.9 1.1 1.3 1 1.7-.1.5-.5 1-1 1.2-.3.1-1.1-.6-1.1-.9 0-.6.5-1.1 1.1-2z"/><path d="m114.7 154.2 1.8-1.7.9 1.1-2.1 1.4z"/><path d="m6.8 165.1 1.8 2.2-1.9.7c-.2-.9-.3-1.9-.5-2.8z"/><path d="m76.7 192.9 1.4-3.3.4-.1c.2.4.6.8.5 1.1-.4.9-.9 1.9-1.4 2.7z"/><path d="m135.5 135 2-1.3 1.9 1.4c0 .2 0 .3-.1.5z"/><path d="m133.2 197.3 2.4 1.1c-.3.4-.6 1.1-1 1.2-1.6.2-.8-1.4-1.4-2.3z"/><path d="m98.7 195.7-2.5 1.4-.5-2.4z"/><path d="m94.8 152.3.8-2.8c.4.2 1 .2 1.1.5.3 1.1.1 1.9-1.9 2.3z"/><path d="m281 124.1c-.6-.4-1.1-.9-1.6-1.5-.1-.2.4-.8.6-1.2l1.7 1.7z"/><path d="m3.8 138.6c-.7.6-1.1 1.2-1.5 1.2-.5-.1-.9-.5-1.1-1-.1-.4.5-1.1.8-1.1.5-.1 1 .4 1.8.9z"/><path d="m69.8 207.9h-3.4l2.3-2c.4.6.7 1.2 1.1 2z"/><path d="m78.2 131.6 1.3 1.5c-.4.4-.9.6-1.5.8-.3 0-.9-.6-.9-.9.1-.4.6-.8 1.1-1.4z"/><path d="m185.5 130.3.5-2.1.5-.2c.4.6.7 1.2.9 1.9 0 .3-1 .6-1.5.9z"/><path d="m201.8 178-.8 2.9h-.7c-.2-.7-.2-1.5-.3-2.3 0-.2.9-.3 1.8-.6z"/><path d="m131 172.9c1.8.9.4 2.3.8 3.6-1.5-1.5-1.6-2.5-.8-3.6z"/><path d="m239.2 141.7c1.5.5 1.8 1.4 1.3 2.8-1.4-.5-1.9-1.3-1.3-2.8z"/><path d="m5.8 134.3c.3-.6.7-1.3 1-1.9 0-.1.8.2.9.4.2 1.1-.3 1.7-1.3 1.9z"/><path d="m38 195.8c-.1-.7-.2-1.3-.3-2.1l2.3-.1-1.5 2.3z"/><path d="m287 133.3c.6 0 1.2.1 1.8.2.5.2.9.4 1.3.8.1 0-.3.5-.4.8-.3-.2-.7-.4-1-.6-.6-.3-1.3-.6-1.9-.9z"/><path d="m22.8 156.1c-.6.4-1 1-1.3.9-.4-.1-1-.6-1-1s.6-.8.9-1.1z"/><path d="m62.6 194.1c.7-.9 1.2-1.6 1.8-2.3.3-.2.6-.2.9-.1.1 0 .3.6.2.7-.7.8-1.3 1.7-2.9 1.7z"/><path d="m105.1 203.8c-.9 1.7-.9 1.7-2.7.9l2.4-1.5c.1.2.2.4.3.6z"/><path d="m84.7 184.1c0 .7-.1 1.5-.3 2.2-.1.3-.7.3-1.1.5-.1-.4-.4-1-.3-1.3.3-.5.7-1 1.2-1.4z"/><path d="m1.7 165.6c1.2.8 1.9 1.3 1 2.1-.3.3-1 .2-1.5.2.2-.7.3-1.4.5-2.3z"/><path d="m59.4 192.4-2.1 1.2c-.5-.8-.3-1.8.5-2.3.1 0 .2-.1.2-.1.2-.2.9.8 1.4 1.2z"/><path d="m71.9 197-1.3 1.1c-.3-.4-.9-.8-.8-1.1.1-.4.6-.8 1-1.2z"/><path d="m180 172.1 2.4-.6.4 1.6-3-.4z"/><path d="m314.8 0 2.7.4c-1.2 1.4-2 1.4-2.7-.4z"/><path d="m23 191.3 1.7-1.2c.2.4.6.9.5 1-.5.4-1 .8-1.5 1.1z"/><path d="m305.4 177.9c-.2-.6-.4-1.1-.5-1.7 0-.1.8-.3 1.2-.4.1.7.2 1.3.2 2z"/><path d="m167.3 152.2v-2.1c1.2-.3 1.2-.3 1.6 1.4z"/><path d="m275 111.5 1.4 1.2-.9 1c-.4-.3-.8-.6-1.1-1.1-.1-.2.3-.6.6-1.1z"/><path d="m125.7 203.3c-.4-.4-1-.7-1.2-1.2-.1-.2.5-.8.7-1.2l1.1 1.7z"/><path d="m110.7 170.7c-.4-1.2-.6-1.9-.7-2.6.2-.1.4-.2.5-.2.2.3.3.7.5 1l1.2-.2z"/><path d="m256.6 126.8c-.2-.8-.3-1.7-.5-2.7 1.6.5 1.7 1.2.5 2.7z"/><path d="m285.8 162.2c-.6.4-1 .8-1.2.7-.4-.3-.8-.6-1.1-1 .3-.3.6-.9.8-.8.5.3 1.1.7 1.5 1.1z"/><path d="m182 169.7c-.7-.8-1.7-1.6-.1-3.3.3 1.3.5 2.2.7 3.1z"/><path d="m169.4 168.8-1.2 1.5c-.2-.4-.5-.9-.5-1.3.1-.4.5-.8.8-1.2z"/><path d="m155.3 174.7-2-1.4v-.5l2-.1z"/><path d="m165.2 144 2.2.4-1.8 1.9c-.2-.8-.3-1.5-.4-2.3z"/><path d="m287.9 140.9c.3.5.5 1 .7 1.5 0 .2-.7.8-.9.8-.4-.2-.8-.6-1.1-1.1-.1-.1.3-.5.5-.8z"/><path d="m94.7 131.1c-.5-.6-.9-1.1-1.3-1.7.4-.4.8-.7 1.2-1 .2 1 .4 1.7.5 2.4z"/></g></g></g><g fill="#353535" transform="translate(5477.485 1799.917)"><path d="m150.2 100.7c-4.7.2-9.3.6-14 .8-2.2.1-4.5 0-6.7.2-2.3.2-4.5.5-6.8.9-2.5.4-5 .9-7.5 1.5-1.1.3-2.2.6-3.2.9s-2.1.6-3.2.9c-1.9.5-3.8 1.1-5.7 1.6-1.7.5-3.5.9-5.3 1.4s-3.6 1-5.5 1.4c-1.8.4-3.5.8-5.3 1.2-4.5.9-9 1.6-13.5 2.1-2.4.2-4.9.5-7.3.8s-4.8.4-7.2.6c-4.7.3-9.4 1-14 2.1-2.3.5-4.6 1.1-6.9 1.7-2.3.5-4.6 1-6.8 1.8-2.3.8-4.5 1.9-6.7 3.2-1 .6-2 1.2-3 1.9-.6.4-1.1.8-1.7 1.3-1.1.9-2.2 1.9-3.2 3-2.4 2.5-5 5-6.5 8.1-1.1 2.4-1.7 5-2 7.6-.1 1.3-.2 2.5-.1 3.8.1 4.8.9 9.6 2.4 14.2.4 1.1.8 2.2 1.3 3.2.4.8.8 1.7 1.2 2.5.7 1.2 1.4 2.3 2.2 3.3 1.6 2 3.2 4 4.9 5.9 1.4 1.5 2.9 2.8 4.6 4 .9.7 1.7 1.4 2.6 2.1 1 .8 2.1 1.6 3.1 2.4.4.3.9.6 1.4.9s1 .7 1.5 1c2.1 1.3 4.2 2.5 6.2 3.9 1 .7 2 1.3 3.1 1.9.4.3.9.5 1.3.7.5.3 1.1.6 1.6.8 2.2.9 4.4 1.8 6.7 2.6s4.6 1.7 6.9 2.4c2.2.7 4.5 1.4 6.8 1.9s4.5 1 6.8 1.4c4.8.8 9.6 1.5 14.5 1.8 2.3.2 4.7.1 7 .1s4.7-.2 7-.5c1.1-.1 2.1-.3 3.2-.5 1.2-.2 2.4-.5 3.6-.7 2.1-.4 4.2-.9 6.4-1.3 1.8-.3 3.6-.7 5.4-1s3.6-.7 5.4-1.1h-.1.2l.3-.1h-.2c2.4-.5 4.7-.9 7.1-1.5s4.6-1.1 7-1.7c2.3-.5 4.5-1.1 6.7-1.9 1-.3 2-.8 2.9-1.2 1.2-.5 2.4-1.1 3.6-1.6 1.1-.5 2.2-.9 3.4-1.3l3-1.2c2.3-.9 4.6-1.8 6.9-2.7 1.1-.5 2.1-1 3.2-1.5 1.1-.6 2.3-1.2 3.4-1.8 1-.6 2-1.2 3-1.9.9-.6 1.8-1.2 2.7-1.9 1.2-.9 2.4-1.7 3.6-2.7.8-.7 1.6-1.5 2.3-2.3.4-.4.8-.9 1.1-1.3.8-1 1.5-2.1 2.3-3.1 1-1.4 1.9-2.8 2.7-4.2 1-2 1.9-4.1 2.6-6.3.4-1.1.8-2.2 1.2-3.3.7-2.3 1.4-4.5 2-6.8.2-.7.4-1.3.5-2 .4-1.5.6-3 .7-4.5.3-2.5-.2-5-1.3-7.2-.3-.5-.6-1-.9-1.4-.5-.7-1.1-1.3-1.7-1.9-.8-.8-1.8-1.6-2.8-2.1-.6-.3-1.2-.6-1.8-.8-.4-.1-.9-.2-1.4-.2-2.4-.3-4.8-.3-7.2-.1-2.3.1-4.6.2-7 .2-3.1 0-6.1 0-9.2-.2-2.2-.1-4.4-.4-6.5-.8-2.3-.4-4.6-.9-6.9-1.4-2.2-.5-4.4-.8-6.6-1.1-2.3-.3-4.7-.6-7.1-.8-1.2-.1-2.4-.2-3.6-.1-1.1.1-2.3.1-3.4.2-2.3.1-4.5.3-6.7.6-4.6.5-9.1.9-13.7 1.1-2.4.1-4.7 0-7-.2-1.1-.1-2.3-.2-3.4-.2s-2.3-.1-3.5 0c-2.2.1-4.4.3-6.6.5-2.3.3-4.5.5-6.8.9-2.3.3-4.7.7-7 1.1s-4.7.9-7 1.4c-1.2.2-2.4.5-3.5.7-1.1.3-2.2.5-3.3.8-2.1.6-4.3 1.2-6.4 1.9-2.2.7-4.5 1.4-6.7 2.1s-4.4 1.3-6.6 2.1c-1.6.5-3.1 1.2-4.6 2-1.7 1.1-3.2 2.4-4.6 3.9-1.2 1.2-2.2 2.6-3 4.1-.3.8-.4 1.6-.4 2.4 0 .4.1.8.2 1.2s.2.7.3 1.1c.3.8.7 1.6 1.2 2.3 1.2 2.1 2.7 3.9 4.5 5.4 1.9 1.6 3.9 3 6 4.3 1.9 1.1 3.9 2.2 6 3.1 2.1 1 4.1 2.1 6 3.3 1.3.8 2.6 1.7 4 2.5 1.1.5 2.2 1 3.3 1.4l2.3.8c1.4.5 2.8 1 4.2 1.3s2.8.8 4.2 1.2c2 .7 3.9 1.6 5.8 2.3 2.2.9 4.5 1.6 6.8 2.2 2.2.6 4.4 1.2 6.7 1.6s4.7.7 7 .9c1.3.1 2.6.2 3.9.2 1.1 0 2.3-.1 3.4-.3 1.2-.1 2.4-.3 3.6-.6 1.1-.3 2.2-.6 3.3-1 4.4-1.4 8.7-3 13-4.6 2.2-.8 4.4-1.9 6.6-2.8 1-.5 2.1-.9 3.2-1.3s2.1-.8 3.2-1.1c2.2-.7 4.4-1.2 6.6-1.8s4.5-1.2 6.7-1.9c2.3-.7 4.5-1.7 6.7-2.8 2-1 4-2.2 5.9-3.4 2.1-1.2 4.1-2.5 6.2-3.7 1.7-1 3.3-2.2 4.7-3.6 1-1 1.8-2 2.6-3.1.4-.5.7-1 1.1-1.4.5-.6 1-1.3 1.4-1.9.1-.3.2-.6.3-.9.2-.8.1-1.7-.3-2.5-.5-.8-1.2-1.4-2.1-1.7-.6-.3-1.2-.5-1.8-.6-.9-.3-1.9-.4-2.9-.5-.6-.1-1.2-.1-1.8-.1s-1.2-.1-1.7 0c-1.2.1-2.4.3-3.5.5-1.2.2-2.4.5-3.6.9-2.3.8-4.5 1.6-6.9 2.1-1.9.5-3.8 1-5.6 1.4-1 .2-2 .3-3 .5-1.1.2-2.2.3-3.3.4-1.2 0-2.3.1-3.5 0-1.1 0-2.2 0-3.3.1-1.1 0-2.3.1-3.4 0-1.1 0-2.2-.1-3.3-.1-2.2 0-4.3.1-6.5.3-1 .1-2 .2-3 .3-.9.1-1.8.3-2.7.3-1 .1-1.8.9-1.7 2s.9 1.8 2 1.7 2.2-.2 3.2-.4c1.2-.2 2.3-.3 3.5-.4 1-.1 2-.2 3.1-.2h3.5c1 0 2 .1 3 .1 1.2 0 2.3 0 3.5-.1s2.3 0 3.4 0 2.3 0 3.4-.1c.9-.1 1.7-.2 2.6-.3.8-.1 1.7-.2 2.5-.4 2-.4 3.9-.9 5.8-1.4.9-.2 1.8-.5 2.7-.7s1.9-.6 2.8-.9l2.7-.9c.8-.3 1.7-.5 2.6-.7.8-.2 1.7-.3 2.5-.4s1.7-.1 2.5 0c.5 0 .9.1 1.4.1.9.1 1.7.3 2.5.5.3.1.7.3 1 .4 0 .1-.1.1-.1.2-.6.8-1.2 1.6-1.9 2.4-.9 1.3-2 2.4-3.1 3.5-1.5 1.2-3.1 2.3-4.8 3.2-1.2.7-2.4 1.4-3.6 2.1s-2.4 1.4-3.5 2.1-2.3 1.3-3.5 1.9c-2 1-4.1 1.8-6.2 2.5-2.2.7-4.5 1.3-6.8 1.9s-4.5 1.1-6.7 1.8c-1.1.3-2.1.7-3.2 1.1s-2.1.9-3.2 1.4c-2 .9-3.9 1.8-6 2.6-.9.4-1.8.7-2.6 1-.9.4-1.9.7-2.8 1-2 .7-4 1.4-6 2.1-1.8.6-3.6 1.3-5.5 1.7-1.3.2-2.6.4-3.9.5-1.4.1-2.8.1-4.2 0-3.2-.3-6.4-.7-9.6-1.3-1.6-.3-3.1-.8-4.6-1.2-1.4-.4-2.8-.8-4.2-1.3-1.5-.5-2.9-1.1-4.4-1.7-1.7-.7-3.4-1.4-5.2-1.9-1.5-.5-3.1-.8-4.6-1.3s-3.1-1-4.6-1.6c-.4-.1-.8-.3-1.1-.4-.8-.3-1.5-.7-2.2-1.1-.8-.5-1.6-1-2.4-1.5-1.5-1-3-1.9-4.6-2.7s-3.2-1.5-4.8-2.3c-1.5-.8-3.1-1.6-4.5-2.5-2.3-1.5-4.4-3.2-6.3-5.2-.5-.5-.9-1.1-1.2-1.7-.4-.7-.8-1.3-1.1-2-.2-.5-.4-.9-.5-1.4 0-.2 0-.4-.1-.6 0-.2.1-.3.1-.5.2-.3.3-.7.5-1 .5-.7 1-1.3 1.6-1.9.7-.7 1.3-1.4 2-2.1.9-.7 1.8-1.4 2.8-1.9 2.3-1 4.6-1.8 7-2.5 2.2-.7 4.3-1.3 6.5-2s4.3-1.4 6.5-2c2.1-.6 4.3-1.2 6.4-1.7.9-.2 1.7-.4 2.6-.5.8-.2 1.6-.3 2.5-.5 4.5-.9 9.1-1.6 13.7-2.2 4.4-.7 8.9-1 13.4-1.1 1.1 0 2.3.1 3.4.2 1.2.1 2.3.2 3.5.2 2.4.1 4.7 0 7-.1 2.2-.1 4.5-.3 6.7-.5 2.3-.2 4.6-.5 6.9-.8 1.6-.2 3.2-.3 4.9-.4 1.5-.1 3.1-.2 4.6-.2 2.1.2 4.3.4 6.4.7 2.2.3 4.5.5 6.7 1 1.2.2 2.4.5 3.5.8 1.1.2 2.2.4 3.2.6 2.2.5 4.3.8 6.5 1 1.1.1 2.2.2 3.3.2 1 0 2 .1 3 .1 2 .1 4.1.1 6.1.1 3.9 0 7.8-.5 11.7-.3.7.1 1.5.2 2.2.3.5.2.9.4 1.3.7.9.7 1.7 1.4 2.4 2.2.4.5.7 1 1 1.6.2.5.4 1.1.6 1.7.2 1 .2 2 .2 3-.2 1.7-.5 3.4-.9 5-.3.9-.5 1.9-.8 2.8-.5 1.8-1 3.5-1.6 5.2-.4 1-.7 2.1-1.1 3.1-.3.9-.7 1.9-1 2.8-.7 1.6-1.5 3.1-2.4 4.6-1.8 2.9-3.9 5.5-6.3 7.9-1.1.9-2.3 1.8-3.5 2.6-1 .7-1.9 1.3-2.9 2-2 1.3-4.1 2.5-6.3 3.6-1 .5-2 .9-3 1.4-1.2.5-2.3.9-3.5 1.4-2.2.9-4.4 1.7-6.6 2.5-1.1.4-2.2.8-3.2 1.3s-2.1.9-3.1 1.4c-1.1.5-2.2.9-3.4 1.3-1.1.4-2.3.6-3.4 1-2.2.6-4.5 1.1-6.7 1.6-1.1.3-2.1.5-3.2.8-1 .3-2.1.5-3.1.7-2.7.5-5.3 1.1-8 1.6-2.2.4-4.3.8-6.5 1.2-2.1.4-4.2.9-6.3 1.3-1.7.3-3.4.7-5.2.9s-3.5.4-5.3.5c-1.7.1-3.4.1-5.2.1-.9 0-1.8 0-2.7 0-.8 0-1.6-.1-2.4-.1-4.6-.5-9.2-1-13.8-1.9-4.5-.8-9-2-13.3-3.4-.6-.2-1.2-.4-1.8-.6l.5.2c-2.3-.8-4.5-1.6-6.8-2.4-2-.7-4-1.6-5.9-2.6-1.1-.7-2.2-1.3-3.3-2-.9-.6-1.8-1.2-2.8-1.8-1.1-.7-2.1-1.3-3.2-2-.9-.5-1.8-1.1-2.6-1.7s-1.6-1.2-2.4-1.8c-.9-.7-1.8-1.4-2.6-2.1-1-.8-2.1-1.6-3.1-2.5-1.3-1.1-2.6-2.4-3.7-3.7-2.1-2.4-4-5-5.7-7.8-.8-1.6-1.4-3.2-2-4.9-.3-1-.5-1.9-.8-2.9-.2-.8-.4-1.6-.5-2.4-.2-1.6-.4-3.3-.6-5-.1-.9-.1-1.8-.1-2.8 0-.7 0-1.4 0-2.1.1-.5.1-1 .2-1.5.2-1.4.5-2.8 1-4.2.4-1.1.9-2.1 1.5-3.1 1-1.3 2-2.5 3.1-3.6 1.2-1.3 2.4-2.6 3.7-3.8 2.5-2 5.2-3.8 8.1-5.2.7-.3 1.4-.6 2.1-.9.8-.3 1.7-.6 2.5-.9.7-.2 1.4-.4 2-.5.9-.2 1.7-.4 2.6-.6 1.7-.4 3.3-.8 5-1.2 1.5-.4 3-.7 4.4-1 2.1-.4 4.3-.7 6.4-1 2.4-.3 4.8-.5 7.2-.7 2.5-.2 4.9-.5 7.4-.7 2.4-.2 4.7-.5 7.1-.7 2.3-.3 4.5-.6 6.8-1 2.4-.4 4.8-.9 7.2-1.4 2.3-.6 4.7-1.1 7-1.8s4.7-1.2 7-1.8c1.2-.3 2.5-.7 3.7-1 1.4-.4 2.7-.7 4.1-1.1 1.3-.4 2.7-.7 4-1.1 1.2-.3 2.5-.6 3.7-.9 2.1-.4 4.2-.7 6.4-1 1.2-.2 2.4-.3 3.6-.4 1.1-.1 2.3-.1 3.4-.1 4.6 0 9.1-.4 13.7-.7 4-.3 8-.4 11.9-.2 1 .1 2 .2 3 .4s2 .4 3 .6c1.9.4 3.8.9 5.7 1.3 2.1.5 4.1.9 6.1 1.4 1.8.4 3.5 1 5.2 1.5 2.4 1 4.8 2.1 7.2 3.3 1.3.7 2.6 1.3 3.8 2 1.1.6 2.1 1.2 3.2 1.9 1.7 1.2 3.3 2.6 4.9 3.9 1.7 1.3 3.4 2.8 4.9 4.3 1.4 1.8 2.6 3.8 4 5.6.7.9 1.4 1.7 2.1 2.5.6.6 1.2 1.3 1.7 1.9.9 1 1.7 2.1 2.6 3.2s1.8 2.2 2.6 3.3 1.6 2.3 2.2 3.5c.6 1.1 1.3 2.3 1.9 3.5.5 1 .9 2.1 1.2 3.2.4 1.2.7 2.4 1 3.6.2.9.4 1.9.5 2.8.1 1.2.2 2.5.4 3.7.2 2.4.4 4.9.6 7.3.1 2.2.3 4.4.4 6.6.1 2.4.2 4.9.3 7.3 0 1.2.1 2.4.1 3.6 0 1.4.1 2.7.1 4.1 0 2.6-.2 5.2-.3 7.7-.2 2.2-.4 4.4-.6 6.6-.2 2.3-.5 4.6-.8 6.8-.3 2.3-.8 4.6-1.4 6.9s-1.3 4.5-1.9 6.8c-.3 1.1-.7 2.1-1 3.2-.4 1.1-.8 2.3-1.1 3.4-.2.5-.4 1-.5 1.6 0-.1.1-.2.1-.2-.4 1-.8 2-1.2 3s-1 1.9-1.5 2.8-1 1.8-1.5 2.7c-.6 1.1-1.2 2.2-1.9 3.2-.6.9-1.4 1.7-2.1 2.5-.5.6-1.1 1.2-1.7 1.9-1 1.1-2.1 2.2-3.2 3.2-.7.7-1.5 1.3-2.4 1.8-1 .7-2.1 1.3-3.2 1.8-1 .6-2.1 1.1-3.2 1.7-1 .5-2 1.1-2.9 1.7-1.9 1.2-3.8 2.7-5.6 4-.4.3-.7.5-1.1.8-.2-.3-.4-.6-.6-.8-1-1.4-2.2-2.6-3.5-3.6-1.4-1-3-1.9-4.6-2.6-1.1-.5-2.3-1-3.5-1.5-.8-.3-1.6-.6-2.4-.9-1.6-.6-3.3-1.1-5.1-1.4-1.5-.3-2.9-.4-4.4-.5-.6 0-1.3-.1-1.9-.1-.7 0-1.3 0-2 0-.5 0-1 .1-1.5.1-.7.1-1.4.2-2.1.3-.8.2-1.7.6-2.4 1-2.8 1.5-5.2 3.6-7 6.1-.9 1.1-1.6 2.3-2.1 3.5-.2.6-.5 1.1-.7 1.7-.4 1.2-.8 2.5-1 3.7-.3 1.5-.6 3.1-.7 4.6-.2 1.5-.3 3.1-.4 4.6 0-.2 0-.3 0-.5-.1 1.4-.2 2.9-.3 4.3-.1 1.2-.1 2.4-.1 3.5s0 2.2.1 3.3c0 1.3.1 2.7.1 4v7.2c0 2.2.1 4.5.1 6.7v.7c.1 1 1 1.8 2 1.7s1.8-1 1.8-2c0-4.8-.1-9.7-.1-14.5 0-2.4-.1-4.9-.1-7.3 0-2.3.1-4.7.3-7 .2-2.1.4-4.1.7-6.1.3-1.9.7-3.8 1.3-5.6.5-1.3 1-2.4 1.8-3.6.9-1.3 1.9-2.5 3.1-3.5 1.1-.9 2.3-1.7 3.5-2.4.6-.3 1.2-.5 1.9-.7 1.2-.2 2.3-.2 3.5-.2.9 0 1.9.1 2.8.1.8.1 1.5.2 2.3.3 1.8.2 3.6.6 5.3 1.2 1.6.6 3.1 1.2 4.6 1.9 1.7.7 3.4 1.6 5 2.6.8.6 1.5 1.2 2.2 1.9.5.6.9 1.2 1.3 1.9-.5.3-1.1.7-1.6 1.1-.9.8-1.8 1.6-2.7 2.5-.8.8-1.5 1.6-2.1 2.4-.7.9-1.4 1.8-2 2.7-.6.8-1.1 1.6-1.5 2.4-.3.6-.5 1.2-.8 1.7-.9 2.1-1.3 4.3-1.3 6.5 0 1 0 2 .2 2.9.1.9.4 1.7.7 2.5.6 1.4 1.4 2.7 2.5 3.7 1.6 1.7 4.1 2.1 6.3 1.9.3 0 .6-.1 1-.1.4-.1.7-.2 1.1-.4.6-.3 1.2-.7 1.7-1.2 1.1-1.1 2-2.5 2.7-3.9.6-1.4 1.1-2.9 1.4-4.4s.5-3.1.6-4.6c0-.6.1-1.3.1-1.9s0-1.3 0-1.9c0-1.1-.1-2.2-.1-3.2 0-2.5-.5-4.9-1.2-7.3.4-.2.7-.5 1.1-.8 1-.7 2-1.4 2.9-2.1 1-.7 1.9-1.3 2.9-2 1.9-1.2 3.8-2.3 5.8-3.3 1.1-.6 2.1-1.1 3.2-1.8 1-.6 2-1.4 2.9-2.1 1.6-1.4 3.1-2.9 4.5-4.5.7-.8 1.4-1.6 2.1-2.4 1.1-1.3 2.1-2.8 2.9-4.3 1-1.9 2.1-3.7 3.1-5.6.9-1.9 1.7-3.8 2.4-5.8v.1c0-.1.1-.2.1-.4v-.1c.8-2.2 1.5-4.3 2.1-6.5.3-1.1.6-2.3.9-3.4s.6-2.2.9-3.3c.6-2.2 1.1-4.5 1.4-6.8.4-2.3.6-4.5.9-6.8.2-2.4.5-4.8.7-7.3s.3-4.9.4-7.3c.1-2.3 0-4.7-.1-7s-.1-4.6-.2-7c-.1-2.2-.3-4.5-.4-6.7-.2-2.4-.3-4.8-.5-7.3-.2-2.4-.4-4.8-.8-7.1-.2-1.3-.5-2.5-.8-3.8-.2-1-.5-2.1-.9-3.1s-.8-2.1-1.3-3-1-1.9-1.5-2.8-1-1.7-1.5-2.6-1.2-1.7-1.8-2.5c-.6-.7-1.1-1.4-1.7-2.1-.7-.8-1.3-1.7-2-2.5-1.3-1.6-2.6-3.1-4-4.6-1.4-1.7-2.7-3.6-3.9-5.4-1.1-1.5-2.3-2.9-3.8-4-.8-.7-1.7-1.4-2.5-2.1-1.9-1.6-3.8-3.2-5.8-4.6-2-1.3-4.1-2.5-6.3-3.5-2-1-4.1-2.1-6.2-2.9-.6-.2-1.2-.5-1.7-.7-.7-.3-1.5-.5-2.2-.8-1.1-.4-2.2-.6-3.3-.9-2.3-.6-4.6-1.1-6.8-1.6-1.1-.3-2.3-.5-3.4-.8-1.1-.2-2.2-.5-3.2-.7-2.4-.5-4.8-.8-7.3-.9-.7 0-1.4 0-2.1 0-1.7.5-3.3.5-5 .6zm-62.7 10.6-.3.1c0-.1.1-.1.3-.1zm76.5 19.8h.2zm49.8 4 .2.3c0-.1-.1-.2-.2-.3zm-37 15.1v.1zm-160.7 16.4.1.1zm151.2 17.1-.1.1zm53.3 48c-.1.2-.1.3-.2.5.1-.2.2-.4.2-.5zm-62.4 25.3h-.1zm28.8 13c.1.5.3.9.4 1.4.3 2.1.5 4.3.5 6.5 0 1.5 0 3.1-.1 4.6-.1 2-.5 4-1.1 6-.4 1.1-.9 2.1-1.5 3.1-.3.4-.6.8-1 1.1-.3.2-.5.4-.8.6h-.1c-.5.1-1 .1-1.6 0-.4 0-.7-.1-1.1-.2-.3-.1-.5-.2-.8-.4-.2-.2-.5-.4-.7-.6-.4-.5-.8-1.1-1.1-1.7s-.5-1.1-.6-1.7c-.2-1.2-.2-2.4-.1-3.6.1-1.1.3-2.2.7-3.2.4-1.2 1-2.4 1.7-3.5.4-.6.9-1.2 1.3-1.7.5-.7 1-1.4 1.6-2.1 1-1.2 2.1-2.4 3.3-3.5.3-.5.7-.8 1.1-1.1zm-40.8 9v.2c0-.1 0-.2 0-.2zm41.6 3v.2s0-.1 0-.2zm-4.8 11.3c-.1 0-.1 0-.2 0zm-57.4-91.9h-.1.2z"/><path d="m.8 78.3c-.8.6-1.1 1.7-.5 2.6 2 2.4 4.1 4.8 6.3 7 1.2 1.4 2.3 2.8 3.4 4.2 1.3 1.6 2.5 3.3 3.8 4.9 1.2 1.6 2.6 3 3.8 4.7 1.1 1.5 2.1 3.1 3 4.8.2.3.3.5.5.8.6.8 1.8 1 2.6.4s1-1.7.5-2.5c-.5-.7-.9-1.5-1.4-2.3s-1-1.6-1.5-2.4-1.1-1.6-1.7-2.3c-.6-.8-1.3-1.6-2-2.3-1.3-1.5-2.4-3.2-3.7-4.8-.6-.8-1.3-1.6-1.9-2.3-.6-.8-1.2-1.6-1.8-2.3-.9-1.1-1.9-2.1-2.8-3.1-.8-.8-1.7-1.7-2.5-2.5-.5-.6-1.1-1.3-1.5-1.9-.3-.7-.9-1-1.6-1-.3 0-.7.1-1 .3z"/><path d="m20.4 27.6c-1 .3-1.5 1.4-1.2 2.4.5 1.1.9 2.2 1.5 3.2-.1-.1-.1-.3-.2-.4.2.3.3.6.5.9.5 1 1 1.9 1.5 2.8.4.7.8 1.5 1.2 2.3 1.7 3.7 3.5 7.3 5.6 10.8 1.1 1.8 2.1 3.6 3.2 5.4.5.9 1 1.8 1.6 2.7.5.8 1 1.5 1.5 2.3.6.9 1.2 1.9 1.7 2.8.5.8 1 1.6 1.4 2.5.5.8 1 1.7 1.6 2.5s1 1.7 1.5 2.6c1 1.8 2 3.5 3.1 5.2 1 1.6 2 3.2 3.1 4.9 1 1.6 2 3.1 2.8 4.7.1.1.1.3.2.4v.1c0 .1.1.2.1.3s.1.2.1.3c.6 1.3 1.2 2.6 2 3.8.6.9 1.7 1.1 2.6.5.8-.6 1.1-1.7.5-2.6-.3-.6-.7-1.2-1-1.8-.2-.5-.5-1-.7-1.5v.1l-.1-.1c-.1-.1-.1-.3-.2-.4 0-.1-.1-.2-.2-.3v-.1c0-.1-.1-.1-.1-.2l-.1-.1s0 0 0 0c-.1-.2-.2-.4-.3-.6-.2-.4-.5-.9-.7-1.3-.4-.8-1-1.5-1.4-2.3-1.1-1.8-2.2-3.6-3.3-5.3-.5-.8-1-1.5-1.5-2.3-.5-.9-1-1.8-1.5-2.7-1-1.8-2-3.5-3.1-5.2-1-1.6-1.9-3.3-3-5s-2.2-3.5-3.3-5.3c-1-1.7-1.9-3.4-2.9-5.1-1.4-2.3-2.6-4.7-3.9-7.1-.7-1.5-1.4-3-2.1-4.5-.8-1.6-1.7-3.1-2.5-4.7l-.2-.2v.1l-.1-.1c-.1-.2-.2-.5-.4-.7-.4-.8-.7-1.6-1.1-2.5-.2-.5-.5-.8-.9-1.1-.3-.1-.5-.2-.8-.2-.1 0-.3 0-.5.1zm3.3 3.4.1.1zm.1.2c0 .1.1.2.1.2s0-.1-.1-.2zm26.7 53.9c.1 0 .1 0 0 0zm-29.4-51-.2-.4v-.1c.1.2.1.3.2.5z"/><path d="m66.5 50.2c-1 .3-1.5 1.4-1.2 2.4.2.4.3.9.5 1.3.3.6.6 1.2.9 1.8.5 1 1.2 1.9 1.8 2.9.5 1 .9 2.1 1.3 3.2.3.9.7 1.7 1 2.6.4 1 .8 2.1 1.1 3.1.3.8.6 1.7.9 2.5.7 2 1.5 3.9 2.2 5.9.7 1.8 1.5 3.5 2.3 5.3.4.8.8 1.7 1.1 2.5.2.3.3.7.5 1.1.2.5.4.9.7 1.4.6.8 1.8 1 2.6.4s1-1.7.5-2.5c-.1-.1-.1-.2-.2-.3-.8-1.6-1.4-3.3-2.2-4.9-.8-1.8-1.6-3.6-2.3-5.4-.7-1.9-1.4-3.8-2.1-5.7s-1.3-3.8-2-5.7c-.6-1.6-1.2-3.2-1.9-4.7-.5-.9-1-1.8-1.5-2.7-.4-.6-.7-1.2-1-1.8-.2-.5-.5-1.1-.7-1.6s-.5-.8-.9-1.1c-.3-.1-.6-.2-.8-.2-.2.2-.4.2-.6.2z"/><path d="m108.1 0c-1 .1-1.8 1-1.8 2 .3 4.2.6 8.4.8 12.6.1 1.9.1 3.9.1 5.8 0 2.1.1 4.2.1 6.3 0 1.9 0 3.8.1 5.7.1 2.1.2 4.2.4 6.4.1 1.9.3 3.7.5 5.6.2 2.1.5 4.1.7 6.2s.4 4.1.6 6.2c.2 2 .4 3.9.6 5.9.4 4.1.7 8.2 1.3 12.3 0 .5.3.9.6 1.3.8.7 1.9.6 2.6-.2.3-.4.5-.9.5-1.4-.7-4.1-.9-8.2-1.3-12.3-.2-2-.4-3.9-.6-5.9-.2-2.1-.4-4.1-.6-6.2-.4-3.9-1-7.8-1.3-11.8-.1-2.1-.3-4.2-.4-6.4-.1-1.9-.1-3.8-.1-5.7 0-2.1-.1-4.2-.1-6.3 0-1.9-.1-3.9-.2-5.8-.2-4.2-.5-8.4-.8-12.6-.1-1-.9-1.7-1.9-1.8.2.1.2.1.2.1z"/><path d="m144.8 39.6c-.9 2-1.7 3.9-2.5 5.9-.4 1-.8 2-1.2 2.9s-.8 1.8-1.1 2.7c-.9 2-1.5 4.1-2.3 6.2-.7 1.9-1.3 3.8-1.9 5.7-.1.4-.2.7-.4 1.1-1.5 4.2-3 8.5-4.8 12.7-.2.5-.3 1-.1 1.4.3 1 1.4 1.5 2.4 1.2.5-.2.8-.5 1.1-.9 1.5-3.8 3-7.6 4.3-11.5.7-1.9 1.3-3.8 1.9-5.8.6-1.9 1.3-3.8 1.9-5.7.4-1.1.8-2.2 1.3-3.2.6-1.3 1.1-2.7 1.6-4 .9-2.4 2-4.8 3-7.1.4-.9.1-2-.8-2.5-.3-.1-.5-.2-.8-.2-.7 0-1.3.4-1.6 1.1z"/><path d="m190.2 22.7c-.5.9-1 1.9-1.5 2.8-.4.8-.7 1.7-1.1 2.5-.8 1.9-1.7 3.7-2.5 5.6-.8 1.8-1.5 3.6-2.3 5.3-.8 1.9-1.6 3.7-2.5 5.6-.4.9-.9 1.8-1.2 2.7-.4 1-.9 1.9-1.3 2.9-.8 2-1.6 4.1-2.2 6.1-.3.9-.6 1.9-.9 2.8-.3 1-.6 2-.9 2.9-.6 1.9-1.2 3.8-1.9 5.8-.8 2.5-1.7 5-2.5 7.5-.2.5-.3 1-.5 1.5-.1.3-.2.5-.3.8.1-.2.1-.3.2-.5-.7 1.7-1.4 3.5-2 5.2-.2.5-.2 1-.1 1.4.2.5.5.8.9 1.1.4.2 1 .3 1.4.1.5-.1.9-.5 1.1-.9.8-2 1.6-4 2.3-6 0 .1 0 .1-.1.2.2-.6.4-1.2.6-1.8 1.1-3.1 2.1-6.2 3.1-9.3.5-1.6 1.1-3.2 1.6-4.9s1.1-3.5 1.6-5.2c.3-.8.5-1.5.8-2.3.2-.5.4-1.1.6-1.6.2-.4.3-.9.5-1.3.8-1.9 1.7-3.7 2.5-5.6.9-1.9 1.8-3.9 2.6-5.9.8-1.8 1.6-3.6 2.4-5.4s1.6-3.5 2.4-5.3c.3-.8.6-1.6 1-2.4.5-1 1-1.9 1.5-2.8s.1-2-.8-2.5c-.3-.1-.5-.2-.8-.2-.7.1-1.4.5-1.7 1.1zm-18.1 55.8.1-.2s0 .1-.1.2zm-3.4-1.4.1-.3v-.1c0 .1-.1.3-.1.4zm4.1-.6-.2.4c.1-.1.2-.3.2-.4z"/><path d="m218.4 62.1c-.3.2-.6.5-.9.9-.3.3-.5.6-.8 1-.5.6-.9 1.2-1.3 1.8-1 1.3-1.9 2.8-2.7 4.2-.8 1.3-1.6 2.6-2.4 3.9-.4.7-.8 1.4-1.2 2-.3.6-.7 1.1-1.1 1.7s-.8 1.2-1.3 1.7c-.6.7-1.1 1.4-1.7 2.1s-1.2 1.4-1.8 2.1-1.2 1.5-1.8 2.2-1.3 1.5-1.9 2.2-1.3 1.3-1.9 2-1.2 1.4-1.7 2.1c-.6.8-1.2 1.6-1.7 2.5-.3.4-.5.9-.5 1.4.1 1 .9 1.8 2 1.7.5 0 1-.2 1.3-.6 1.1-1.6 2.3-3.2 3.6-4.7s2.7-3 4-4.5c1.3-1.6 2.6-3.2 4-4.8.4-.4.7-.9 1.1-1.3.3-.4.6-.9.9-1.3.7-.9 1.3-1.9 1.9-2.8.4-.6.7-1.3 1.1-2 .5-.8 1-1.6 1.5-2.4.9-1.4 1.8-2.8 2.7-4.2.4-.6.9-1.3 1.4-1.9.5-.7 1-1.3 1.6-1.9.7-.6.9-1.7.4-2.5-.3-.5-.9-.8-1.5-.8-.6-.1-1 0-1.3.2z"/><path d="m99.7 135.2c-.7.1-1.4.2-2 .3-2 .5-3.9 1.3-5.7 2.2-.8.4-1.6.8-2.4 1.2-.4.2-.8.4-1.2.6-.8.5-1.5 1-2.2 1.7-1.5 1.4-2.8 3-4 4.7-.3.5-.6.9-.9 1.4-.6 1-1 2.1-1.3 3.2-.3 1-.5 2-.6 3.1-.1.9-.2 1.9-.2 2.9 0 1.1.2 2.2.4 3.3.2.9.4 1.8.7 2.6.3 1.1.7 2.2 1.2 3.3.4.9.9 1.8 1.4 2.7.9 1.6 2 3 3.2 4.2.6.6 1.3 1.1 2 1.6.4.3.7.5 1.1.7 1 .6 2 1.1 3.1 1.6.7.2 1.3.5 2 .6 1.4.3 3 .4 4.4.2 1.1-.1 2.3-.4 3.4-.7 2-.6 3.9-1.4 5.9-2.2.4-.1.7-.3 1.1-.5.5-.3 1-.6 1.5-1 .4-.4.8-.8 1.2-1.3s.8-1 1.2-1.5c.6-.8 1.1-1.5 1.6-2.3.4-.7.8-1.4 1.2-2.1.4-.8.8-1.7 1-2.6.3-.7.6-1.5.9-2.2.4-1.2.8-2.4 1-3.6.1-.6.3-1.2.5-1.8.1-.2.2-.3.2-.5.2-.6.3-1.2.3-1.8 0-.5 0-1 0-1.5-.1-1-.3-2-.6-3-.4-1-.8-2-1.3-2.9-.4-.8-.8-1.7-1.2-2.5-.5-.8-1-1.6-1.7-2.3-.4-.4-.8-.7-1.2-1.1-.8-.7-1.7-1.3-2.7-1.8-.8-.4-1.6-.8-2.4-1.2-1-.4-2.1-.8-3.1-1.1-.4-.1-.9-.2-1.3-.3-.6-.1-1.2-.2-1.8-.2-.4 0-.7 0-1.1 0-.6-.2-1.1-.2-1.6-.1zm3.3 3.7c.7.1 1.3.3 2 .4l1.8.6c.7.3 1.4.7 2.1 1 .7.4 1.5.9 2.1 1.4.6.4 1.1 1 1.6 1.5.9 1.4 1.7 2.9 2.3 4.5.2.5.4.9.5 1.4.1.4.2.8.3 1.2.1.6.1 1.3.1 1.9 0 .2-.1.4-.1.5-.1.2-.2.4-.3.6-.1.4-.2.8-.3 1.2-.2.7-.3 1.5-.5 2.2-.1.4-.2.9-.3 1.3s-.3.8-.5 1.3c-.4 1-.8 2.1-1.2 3.1-.9 1.9-2 3.7-3.3 5.3-.4.6-.9 1.2-1.5 1.7-.6.4-1.3.8-2 1-1.1.5-2.3.9-3.5 1.3-1.3.5-2.7.8-4.1 1.1-.8.1-1.5.1-2.3 0-.9-.2-1.8-.4-2.6-.8-.7-.3-1.4-.7-2-1-.7-.4-1.4-.9-2-1.4-.7-.6-1.4-1.3-2-2-1.1-1.5-2-3.2-2.8-4.9-.7-1.9-1.2-3.8-1.5-5.8-.1-1.4-.1-2.9.1-4.3.2-1.2.5-2.3.9-3.4.7-1.4 1.5-2.7 2.5-3.9.4-.5.9-1 1.3-1.5.5-.5.9-.9 1.4-1.3 1.2-.8 2.4-1.4 3.6-2 1-.5 1.9-.9 2.9-1.3.6-.3 1.2-.5 1.9-.7s1.4-.4 2.2-.5c1.2.2 2.2.2 3.2.3zm4 1.2h.1zm-8.3 33.4h-.2z"/></g></g></svg>