<svg enable-background="new 0 0 396.3 570" viewBox="0 0 396.3 570" xmlns="http://www.w3.org/2000/svg" xmlns:xlink="http://www.w3.org/1999/xlink"><clipPath id="a"><path d="m7.8 10c-20.3 20.5 4.1 44.8 14 64 7.1 17 14.2 34.2 20.7 51.6 12.2 30.4 37.3 52.7 52 81.6 6.9 12.4 7.9 26.6 10.5 40.3 14.3 89.1 124.2 90.5 102.9 5.6-7.6-24.8-22.8-47.6-22.5-74.4-.9-45.2-9.9-80.1-53.9-100.8-9.4-5-19.2-9.7-27.5-16.5-13.6-10.4-23.2-24.7-33.7-37.9-13.7-18.1-44.2-34.8-62.5-13.5z"/></clipPath><text fill="#fff" font-family="'Tajawal-Regular'" font-size="25" transform="translate(136.367 510)">أهلاً بكم في</text><text fill="#fff" font-family="'Tajawal-Medium'" font-size="31" transform="translate(31.872 558)">تطبيق عيادة فايا للتجميل</text><g transform="translate(-3101.163 -1129.375)"><path d="m3109 1253.3c-20.3 20.5 4.1 44.8 14 64 7.1 17 14.2 34.2 20.7 51.6 12.2 30.4 37.3 52.7 52 81.6 6.9 12.4 7.9 26.6 10.5 40.3 14.3 89.1 124.2 90.5 102.9 5.6-7.6-24.8-22.8-47.6-22.5-74.4-.9-45.2-9.9-80.1-53.9-100.8-9.4-5-19.2-9.7-27.5-16.5-13.6-10.3-23.2-24.6-33.7-37.8-13.7-18.1-44.2-34.9-62.5-13.6z" fill="#94a7bf"/><g fill="#fff" transform="translate(3178.322 1129.375)"><path d="m111.6 234.2c40.9 69.4 26.3 165.9 133.2 93 122.6-47.1 66.5-115.7 22.3-202.2-28.9-41.2-34.8-97.3-89-114.1-93-38.1-96.5 33.3-28.1 76.9 9.3 6.5 14.3 18.3 9.1 28.9-51.4 28.3-110.4-103.2-154.2-29-27.7 88.6 69.7 49.1 106.7 146.5z"/><path d="m267 124.8c0 .1.1.1.1.2z"/></g><g transform="translate(3101.164 1243.321)"><path d="m7.8 10c-20.3 20.5 4.1 44.8 14 64 7.1 17 14.2 34.2 20.7 51.6 12.2 30.4 37.3 52.7 52 81.6 6.9 12.4 7.9 26.6 10.5 40.3 14.3 89.1 124.2 90.5 102.9 5.6-7.6-24.8-22.8-47.6-22.5-74.4-.9-45.2-9.9-80.1-53.9-100.8-9.4-5-19.2-9.7-27.5-16.5-13.6-10.4-23.2-24.7-33.7-37.9-13.7-18.1-44.2-34.8-62.5-13.5z" fill="#fff"/><g clip-path="url(#a)"><g fill="#fff" transform="translate(-7.761 -5.488)"><path d="m42.4 51.6c.1-3.3 3.3-4.7 6.1-4.7 1.6 0 3.6 2.4 4 4.1.7 3-1.2 4.8-2.8 6.7-.3.3-.6.4-.9.5-1 .2-4.3-1.6-4.7-2.5-.7-1.3-1.2-2.7-1.7-4.1z"/><path d="m120.5 252.3c.5-1.1 1.1-2.2 1.7-3.3.2-.3 1.2-.2 1.7 0 2 .9 2.8 5.7 1.4 7.2-1.1 1.2-3.4.6-4.1-1.1-.3-.9-.5-1.9-.7-2.8z"/><path d="m46.4 37.1c1.8-.5 3.5-1.4 5.3-1.5 2.2-.1 3.5 3.3 2.2 5-.4.5-.7 1-1.2 1.7-1.2-1.1-3.6-.7-3.8-3.2 0-.2-.5-.4-.8-.6-.6-.3-1.2-.5-1.8-.7z"/><path d="m120.5 235 .4 1.8 1.2-1.8c.4 1.7 1.1 3.1 1 4.4-.1 1.2-.7 2.4-1.6 3.3-.8.4-1.8.3-2.5-.2-1.4-1.2-1.1-3-.6-4.6.5-1.1 1.1-2.2 1.7-3.2z"/><path d="m37.7 8c.3-1.2.7-2.5 1.1-3.7.5-1.1 1.4-1.1 1.9-.1.7 1.4 1.3 2.8 1.7 4.3.1.6-.8 1.5-1.4 2-.6.2-1.3 0-1.8-.4-.6-.7-1.1-1.4-1.5-2.1z"/><path d="m137.6 111.6c-.2.8-.5 1.5-.9 2.2s-.9 1.3-1.6 1.7c-.4.2-1.1-.5-1.6-.9-1.2-.8-1.2-2.2-1.2-3.4.1-.6.5-1.2 1.1-1.5.7-.2 1.5-.1 2.1.3.8.5 1.5 1 2.1 1.6z"/><path d="m101.6 135.4c-.1-1.5 1.1-2.1 2.3-2.3 1.1-.2 2.3 1.2 2.3 2.4 0 1.3-1.2 2.8-2.3 2.8-1.4-.1-2.5-1.4-2.3-2.9-.1 0-.1 0 0 0z"/><path d="m65.9 43.8c2.4 1.2 3.4 3 2.6 4.8-.3.6-1.1 1.4-1.5 1.4-.8-.2-1.6-.7-2-1.5-.8-1.6-.4-3.5.9-4.7z"/><path d="m137 121c-.3.2-.8.8-1.3.8-1.9 0-3.1-1-3-2.5.1-1.3.4-2.5 1.9-2.8 1-.3 2.4 2.2 2.4 4.5z"/><path d="m124.3 142c-1.7 0-2.3-.8-2.3-2.8 0-1.1.8-2 1.9-2.1h.3c.7 0 1.8 1.2 2 2.1.4 1.1-.2 2.3-1.3 2.7-.2 0-.4.1-.6.1z"/><path d="m79.8 171.8c1.1.5 2.6.8 2.9 1.5.4 1-.2 2.4-.5 3.5-.4.2-.9.2-1.4 0-.7-.6-1.2-1.3-1.5-2.2-.2-.7.2-1.5.5-2.8z"/><path d="m90.7 168.5c-1 .2-2 .3-3 .3-.6 0-1.6-.5-1.7-.9-.1-1.1.1-2.3 1.5-2.6.5-.1 1 .1 1.4 0 1.8-.6 1.9.4 1.8 1.7z"/><path d="m189.3 200.5c-2.2.8-2.8-.4-3.3-1.5-.7-1.7-.3-3.1 1.8-4.2z"/><path d="m26.6 75.7c-1-.3-2.2-.4-2.4-.9-.3-1.3-.5-2.7-.4-4.1 0-.2.9-.8 1.2-.6.5.2.9.7 1.1 1.2.3 1.3.3 2.6.5 4.4z"/><path d="m168.2 246.7 2-2.4c.6.6 1.5 1 1.7 1.7.2.5-.4 1.9-.7 2-1 0-1.9-.2-2.8-.5z"/><path d="m150.5 273.5c-1.2-2.9-1.2-3.2 1.3-4.5.5.8 1.4 1.6 1.4 2.4-.1 1.4-1.3 2.1-2.7 2.1z"/><path d="m62 186c.3-1.6.7-2.8 2.2-2.8.5 0 1.6 1.4 1.5 1.7-.7 1-1.5 2-2.4 2.8z"/><path d="m162.9 256.6c1.7 1.2 2.3 2.9 1.4 4-.5.4-1.2.4-1.8.2-1.7-1.1-1.7-1.5.4-4.2z"/><path d="m188.8 327.3c-.5.3-1.2 1-1.8 1.1-1.4.1-1.5-1.1-1.5-2.1 0-.9.1-1.8 1.4-1.8 1.6-.1 1.6 1.1 1.9 2.8z"/><path d="m195.5 169.1c-.2.4-.7 1.5-.9 1.5-1.2-.2-2.4-.6-3.4-1.2-.3-.2-.1-1.2-.1-1.9.7-.1 1.5-.1 2.2 0 .7.4 1.5 1 2.2 1.6z"/><path d="m156.3 145.4c.4.3.8.6 1.1.8.4.3.8.6 1.2 1 .3.3.5.7.5 1.1 0 .3-.6.6-.9.7-.4.2-.9.3-1.3.3-.5-.1-1.2-.3-1.3-.6-.3-.8-.3-1.6-.3-2.4 0-.3.6-.6 1-.9z"/><path d="m21.3 62.3c-1.3.8-2.1 1.7-2.7 1.6-.8-.3-1.4-1-1.5-1.9 0-.5 1.1-1.6 1.6-1.5.8 0 1.4.9 2.6 1.8z"/><path d="m130 270.8c-.5-.7-1.2-1.2-1.3-1.9-.1-.8 0-1.7.4-2.5.1-.2 1.6-.2 1.9.1.6.5.7 1.5.2 2.1-.1.1-.2.2-.4.3-.5.4-.6 1.2-.8 1.9z"/><path d="m103.3 179.9c-.7-2.3-.2-3.9 2.7-4.7-.2.8-.5 1.5-.7 2.3 0 .2 0 .4.1.6.2.3.4.6.6.9-.3.1-.7.2-1 .3-.6.2-1.2.4-1.7.6z"/><path d="m35.8 39.8c2.1.1 3.2.9 2.8 2.2-.3.7-.9 1.1-1.7 1.3-1.4-.1-1.6-.9-1.1-3.5z"/><path d="m100.6 155.2c-.5 1-1.1 2.3-1.3 2.3-1-.3-2.2-.7-1.9-2.1.2-.7.8-1.3 1.5-1.6.4-.1 1.1.8 1.7 1.4z"/><path d="m126.4 261.3c2.4 1 2.4 2.3 1.7 4.2-.6-.3-1.8-.4-1.8-.8-.1-1.2 0-2.3.1-3.4z"/><path d="m125 285.2c.4.3 1.1.5 1.3.9.4.5.8 1.4.6 1.8-.3.5-1.2.8-1.8 1.1-.2-.8-.4-1.5-.5-2.3.1-.5.2-1 .4-1.5z"/><path d="m175 174.6c.2 1.2.4 2.4.6 3.6-1.1-.4-2.7 0-2.6-1.7.1-.7.9-1.4 1.3-2.1z"/><path d="m133.8 267.4c-.4-.8-.8-1.7-1.1-2.6-.1-.2.7-1 .8-.9.8.4 1.6.9 2.4 1.4l-1.4 1.9z"/><path d="m108 96.3c-.3-.8-.5-1.6-.6-2.4.1-.7.4-1.3.8-1.8.1-.1 1.1.1 1.1.4.3.7.3 1.4.2 2.1-.2.5-.9 1-1.5 1.7z"/><path d="m141.2 126.6c1.3 1.7 1.2 2-1 3.2-1.7-1.5-1.5-2 1-3.2z"/><path d="m212.5 307.8 1.3 3.7-1.3.5c-.8-1.3-1.8-2.5-.7-4z"/><path d="m96.9 150.5c.2-.7.3-1.7.8-2.2.3-.3 1.3 0 1.9.3.3.2.5.9.4 1.3 0 .2-.7.5-1.1.5-.6.1-1.3.1-2 .1z"/><path d="m166.8 274.9c-.5.2-1.1.8-1.5.6-.6-.2-1-.9-1.5-1.4.4-.3.9-.9 1.3-.9.6.2 1.2.6 1.8 1-.1.2-.1.5-.1.7z"/><path d="m107.2 158.8.4 1.9-.8.2c-.3-1.3-.6-2.6-.7-3.8 0-.1 1-.7 1.2-.5.4.3.7.8.7 1.3 0 .3-.6.7-.8.9z"/><path d="m98.5 161.9c-.6-.8-1.3-1.3-1.2-1.6.3-.6.7-1.2 1.3-1.6.2-.1 1.3.8 1.3 1-.4.8-.9 1.5-1.4 2.2z"/><path d="m153.5 195h-2.6l.9-2.5c.6.2 1.5.2 1.8.6s-.1 1.3-.1 1.9z"/><path d="m56.9 165.7c-.6-.8-1.4-1.3-1.3-1.7.2-.6.9-1 1.3-1.4.5.5 1 1.1 1.3 1.7.2.2-.6.8-1.3 1.4z"/><path d="m135.9 167.6c.7.7 1.2.9 1.4 1.3.2.7.3 1.4.3 2.1 0 .1-1 .3-1 .2-.3-.6-.6-1.2-.8-1.8 0-.6 0-1.2.1-1.8z"/><path d="m179.5 170.7c.7.9 1.4 1.4 1.4 1.9 0 .4-.7.9-1.1 1.4-.4-.4-1.1-.8-1.2-1.3s.4-1.1.9-2z"/><path d="m146.3 225.8-3 1.8c-.1-.7-.3-1.9-.2-1.9 1-.3 2.1-.5 3.2-.7-.1.3-.1.5 0 .8z"/><path d="m121.9 162.1c-.4.4-1 .8-1.5 1.1-.2.1-1-.8-.9-.9.3-.7.7-1.2 1.3-1.7.2-.1.9.5 1.4.7z"/><path d="m107.8 134.6c-.1-1-.1-1.8-.2-2.7.6.1 1.5 0 1.6.3.7 1 .3 1.8-1.4 2.4z"/><path d="m131.8 236.4 1.9-1.8.9 1.1-2.2 1.5z"/><path d="m139.6 82.7 1.2 2-1.5.8-.8-2.3z"/><path d="m100.1 192.3c-.4-.8-.9-1.4-.8-1.7.2-.5.9-.9 1.3-1.3.3.4 1 1 .9 1.3 0 .5-.7.9-1.4 1.7z"/><path d="m72.7 71.3c1.7-.2 2.7-.5 2.5.9-.1.5-.7.9-1 1.3z"/><path d="m153.8 216.2 2.1-1.3 2 1.5-.1.5z"/><path d="m181 159.9-1.2-1.2 2.5-1.6 1.2 1.1z"/><path d="m106 39.6c.7.4 1.2 1 1.7 1.6.2.3-.4 1.1-.7 1.6l-.7-.1-.9-2.7z"/><path d="m151.4 281.8 2.5 1.1c-.3.4-.6 1.2-1 1.3-1.7.2-.9-1.5-1.5-2.4z"/><path d="m115.1 280.1-2.6 1.5-.6-2.5z"/><path d="m178.9 183.9c.3.3.5.6.7 1 .2.5.3 1 .3 1.5.1.4 0 .8-.2 1.1-.1.2-.8.3-.9.2-.3-.3-.4-.8-.4-1.2.2-.9.3-1.8.5-2.6z"/><path d="m111 234.4.8-2.9c.4.2 1.1.2 1.1.5.3 1.1.2 2-1.9 2.4z"/><path d="m115.3 71.4 1.6 1.6-1.3 1.2-1-2.2z"/><path d="m109.1 182.8c.1-.8.3-1.7.4-2.5l.6-.2c.4.5 1.1 1.1 1 1.5-.2.6-.9 1-1.4 1.5z"/><path d="m93.5 212.6 1.4 1.5c-.5.4-1 .7-1.6.9-.3 0-.9-.6-.9-.9 0-.4.6-.8 1.1-1.5z"/><path d="m206.4 211.3c.2-.7.3-1.5.5-2.2l.6-.2c.4.6.8 1.3.9 2 0 .3-1 .6-1.6 1z"/><path d="m223.5 261.4c-.4 1.4-.6 2.2-.8 3.1h-.7c-.2-.8-.3-1.6-.3-2.4 0-.2.8-.3 1.8-.7z"/><path d="m149.1 256.1c1.8.9.4 2.4.8 3.8-1.6-1.6-1.7-2.6-.8-3.8z"/><path d="m169.4 323.7-2.6-.2 1-1.9 2 1.8z"/><path d="m152.3 158.3c.3.5.7.9.6 1-.5.7-1 1.4-1.6 1.9-.4-.2-.7-.5-1-.7z"/><path d="m84.9 43.8c-.3 2.2-.9 2.4-3.1 1z"/><path d="m121.8 288.6c-.9 1.8-.9 1.8-2.9 1l2.6-1.6z"/><path d="m100.4 267.6c0 .8-.1 1.6-.3 2.3-.1.3-.7.4-1.1.5-.1-.5-.4-1-.3-1.3.4-.6.8-1.1 1.3-1.5z"/><path d="m176 316.5-2 .3-.1-1.6 2.1.3z"/><path d="m73.2 3c.5.5 1.1.9 1.1 1.3 0 .3-.6 1-.9 1-.5-.1-.9-.5-1.3-.9z"/><path d="m40.7 35.6c.5.6 1.1 1.1 1 1.4-.1.5-.6.9-.9 1.3-.4-.3-1-.7-1-1-.1-.4.4-.9.9-1.7z"/><path d="m0 33.9.3-2.1 2.2.7-1.8 1.6z"/><path d="m70.7 153.5c-.5.5-1.1.9-1.8 1.3-.1.1-.6-.6-.9-.9l2.2-1.2z"/><path d="m200.6 255.3 2.5-.7c.1.4.2 1 .4 1.6l-3.1-.4z"/><path d="m187.3 234.3v-2.2c1.2-.3 1.2-.3 1.7 1.4z"/><path d="m18.6 69c-.5.4-.9.8-1.1.7-.5-.3-.9-.6-1.3-1 .3-.3.8-1 .9-1 .5.2.9.7 1.5 1.3z"/><path d="m149.5 189.8c-.7-.6-1.3-1.1-1.9-1.8-.1-.1.3-.5.5-.8l2.1 1.9z"/><path d="m17.2 41.8-.5 1.9-1.5-.5 1.1-1.8z"/><path d="m143.4 288.1c-.4-.4-1.1-.7-1.3-1.2-.1-.3.5-.8.8-1.2l1.2 1.8z"/><path d="m127.7 253.8c-.4-1.3-.6-2-.8-2.7.2-.1.4-.2.6-.2.2.4.3.7.5 1.1l1.3-.3z"/><path d="m142.1 77.9c-.4-.7-.8-1.1-.8-1.4.1-.4.6-.8.9-1.2.3.4.9.7.9 1.1 0 .3-.5.7-1 1.5z"/><path d="m157.8 171.7c.5.5.9 1 1.2 1.5.1.2-.6.8-.9.8-.5-.1-.9-.4-1.1-.8 0-.2.4-.7.8-1.5z"/><path d="m135.9 175.2-.2 3.1c-1.8-1.4-1.8-1.8.2-3.1z"/><path d="m137.4 154.7-1.4-2c1.9-.2 2.6.2 1.4 2z"/><path d="m188.1 184c-.3-.6-.7-1.3-.9-2 .3-.2.6-.4.9-.6l.9 2.2z"/><path d="m78.2 114c-.3-.6-.8-1-.7-1.2.2-.4.7-.9 1.1-.9.3 0 .6.6.9 1z"/><path d="m110.2 122.3.8 1.7-1.3.5-.4-2z"/><path d="m128.8 190.9c-.5.8-1 1.6-1.5 2.4-.1.2-.3.3-.5.3s-.5-.3-.4-.4c.1-.5.2-1.2.6-1.4.5-.3 1.1-.6 1.8-.9z"/><path d="m202.7 252.7c-.7-.9-1.8-1.7-.1-3.5.3 1.3.5 2.3.7 3.3z"/><path d="m189.5 251.8-1.2 1.6c-.2-.5-.6-.9-.5-1.4.1-.4.5-.8.8-1.2z"/><path d="m33.8 72-1.5 1.2c-.3-.3-.8-.8-.7-1 .2-.5.5-.8 1-1 .2 0 .6.4 1.2.8z"/><path d="m180.3 143.1-2.6.2 1.1-2.2z"/><path d="m174.6 258-2.1-1.5.1-.5 2-.1z"/><path d="m85.2 140.4c.3-.7.6-1.5.9-2.2.3.2.8.4.8.5-.2.7-.6 1.4-.9 2.1z"/><path d="m91.8 104.6c-.5-.8-.9-1.2-.9-1.6 0-.3.5-.9.7-.9.4.1 1 .5 1 .8 0 .4-.4.9-.8 1.7z"/><path d="m185 225.6 2.3.4-1.9 2c-.1-.7-.2-1.5-.4-2.4z"/><path d="m94.1 49.4c2.7-1.8 2.9-1.8 3.4 0z"/><path d="m67.5 177.4-1.2 2.3-.5-.1c-.1-.7-.2-1.3-.3-1.8z"/><path d="m110.8 212.1c-.5-.6-.9-1.2-1.4-1.8.4-.4.8-.7 1.2-1l.6 2.5z"/><path d="m25 .9c-.5.5-.8 1-1.2 1-.2.1-.9-.6-.9-.8.1-.5.5-.9.9-1.1.2-.1.7.5 1.2.9z"/><path d="m139.4 168c-.4-.7-.8-1.4-1.2-2.1-.1-.1.3-.6.6-.7.2-.1.6.3.7.5.1.6.2 1.2.3 1.9z"/><path d="m173.5 119.7 1.4-1.4.9.9-1.6 1.2z"/></g></g></g><g fill="#353535"><g transform="translate(3248.971 1377.768)"><path d="m150 0c-1.4 0-2.8.1-4.2.4-1 .2-1.9.5-2.9.8s-2 .7-3 1.1c-.7.3-1.3.6-1.9.9-1.7.8-3.5 1.7-5.1 2.6-1.8 1-3.5 2.1-5.3 3.2-.9.6-1.7 1.2-2.6 1.8-.8.6-1.5 1.3-2.3 2-.7.7-1.5 1.4-2.2 2.1s-1.5 1.3-2.2 1.9-1.5 1.2-2.2 1.8c-.8.6-1.6 1.2-2.3 1.9-.8.7-1.4 1.5-2.1 2.2-.6.6-1.2 1.3-1.8 1.9-.7.7-1.4 1.5-2.2 2.1l-1.3 1.2c-.4.3-.8.6-1.2 1-1.5 1.2-3 2.3-4.5 3.3l-1.3.9c-.6.4-1.1.7-1.7 1s-1.2.6-1.9.8c-1.6.6-3.3.9-5.1 1.1-1.5 0-2.9-.1-4.3-.4-1-.3-2-.6-2.9-1.1-1-.5-2-1.2-2.9-2-1.8-1.7-3.3-3.6-5-5.4-.7-.8-1.5-1.6-2.2-2.4-.4-.4-.7-.8-1.1-1.3s-.7-.9-1-1.3c-.5-.8-1-1.6-1.4-2.4-.5-.9-1.1-1.8-1.7-2.6s-1.2-1.5-1.8-2.2c-.7-.8-1.4-1.5-2.2-2.3-1.4-1.5-3.1-2.9-4.6-4.2-1-.8-2-1.6-3.1-2.3-1.2-.6-2.5-1.1-3.8-1.5-1.5-.3-2.9-.3-4.4-.1-1.3.1-2.6.4-3.8.9-.8.3-1.6.7-2.4 1.2-.9.5-1.8 1.1-2.7 1.8-1.6 1.1-3.2 2.2-4.8 3.4l-1.2 1c-.4.4-.8.8-1.2 1.2-.7.7-1.4 1.5-2.1 2.3-1.4 1.6-2.7 3.2-4.1 4.8-1.3 1.6-2.6 3.1-3.9 4.6-1.2 1.5-2.3 3.1-3.4 4.7-1.1 1.5-2.3 3-3.5 4.4s-2.4 2.9-3.5 4.4c-1.1 1.4-2.1 2.9-3.2 4.3-.9 1.2-1.8 2.3-2.6 3.5-1.9 2.6-3.7 5.4-5.6 8.1-.6.8-.3 2 .5 2.5.8.6 2 .3 2.5-.5 1.1-1.6 2.1-3.1 3.2-4.7 1.2-1.7 2.4-3.4 3.6-5.1 2.4-3.2 4.7-6.6 7.3-9.7 1.2-1.5 2.5-2.8 3.6-4.4.5-.7 1-1.5 1.6-2.2.6-.9 1.3-1.8 2-2.7.6-.8 1.3-1.5 1.9-2.3s1.3-1.5 2-2.3 1.3-1.6 2-2.4c.6-.7 1.2-1.5 1.9-2.2.4-.4.8-.9 1.2-1.3 1.2-1.4 2.5-2.6 3.9-3.7 1.5-1.1 3.1-2.2 4.6-3.3 1.3-.9 2.7-1.7 4.1-2.3 1-.3 2-.5 3-.6.8-.1 1.7 0 2.5.1.6.2 1.2.4 1.8.6 1.8 1 3.4 2.2 5 3.6 2.7 2.3 5.1 4.9 7.2 7.7.5.8.9 1.6 1.4 2.3.3.5.6 1 .9 1.4.3.5.7 1 1 1.5 1.3 1.6 2.6 3.1 4 4.6 1.5 1.6 2.8 3.3 4.4 4.8 1 1 2.1 1.8 3.3 2.5.9.5 1.7.9 2.7 1.3 1.5.6 3.1.9 4.7 1 .3 0 .6.1.9.1.7.1 1.4 0 2.1 0 1-.1 2.1-.2 3.1-.5 2.1-.5 4.1-1.2 6-2.3 1.1-.7 2.2-1.4 3.2-2.2.9-.6 1.7-1.2 2.5-1.8.9-.6 1.7-1.3 2.6-2 .7-.6 1.4-1.2 2.1-1.8.4-.3.7-.7 1.1-1.1.3-.3.6-.6.9-.9.8-.8 1.5-1.6 2.3-2.4.5-.6 1.1-1.1 1.6-1.6.6-.6 1.3-1.1 2-1.6 1.2-.9 2.4-1.9 3.5-2.9 1.3-1.1 2.6-2.3 3.8-3.5 1.1-1 2.3-1.9 3.5-2.7 1.9-1.2 3.7-2.4 5.7-3.4 1-.6 2.1-1.1 3.2-1.6 1.5-.8 3.1-1.5 4.8-2.2.7-.3 1.5-.5 2.2-.7.9-.3 1.9-.5 2.9-.6 1.9-.1 3.9-.1 5.8 0 1 0 2 .1 2.9.2 1 .1 2.1.1 3.1.3.7.2 1.4.4 2 .6.7.2 1.4.5 2.1.8 1.3.7 2.6 1.6 3.8 2.6 1.1 1 2.1 2.1 3.1 3.1.5.6 1.1 1.2 1.6 1.8.4.5.8 1.1 1.2 1.7.8 1.3 1.6 2.6 2.3 3.9.8 1.5 1.7 2.9 2.5 4.4.8 1.3 1.4 2.8 2 4.2.3.7.6 1.5.9 2.3.2.6.5 1.2.7 1.8l.6 1.8c.4 1.1.6 2.3.9 3.4.3 1.6.4 3.2.6 4.8.1 1.7.2 3.4.2 5.2 0 .9-.1 1.8-.3 2.6-.1.7-.2 1.4-.4 2.2s-.4 1.6-.6 2.3c-.3.9-.5 1.7-.8 2.6-.3.8-.5 1.7-.8 2.5-.4 1-.7 2-1.1 3-.1.3-.3.6-.4.9-.3.6-.6 1.2-.8 1.8-.3.8-.7 1.5-1.1 2.2-.8 1.6-1.5 3.2-2.3 4.8-.5.9-1 1.8-1.4 2.8-.4.8-1 1.7-1.4 2.5-.4.7-.9 1.5-1.3 2.2-.5.8-1 1.7-1.6 2.5-1.1 1.7-2.3 3.4-3.6 5-1.3 1.5-2.5 2.9-3.8 4.4-.6.6-1.1 1.3-1.7 1.9-.8.8-1.5 1.6-2.3 2.3-.9.9-1.9 1.8-2.9 2.7-.8.7-1.6 1.5-2.4 2.2s-1.5 1.4-2.3 2.1c-1.3 1.2-2.7 2.3-4.1 3.2l.4-.3c-2 1.4-4.1 2.6-6.1 3.9-.7.4-1.4.9-2.2 1.3-.6.4-1.2.8-1.8 1.1-1.6.9-3.2 1.8-4.9 2.7-.7.4-1.5.8-2.2 1.1-.8.4-1.6.7-2.4 1.1-3.6 1.2-7.2 2.3-10.8 3.4-1 .3-2 .6-3.1.9-1.2.3-2.3.6-3.5.8-1.7.4-3.5.8-5.2 1.1-.9.1-1.8.3-2.7.4-.8.1-1.6.2-2.4.3-1.5.2-3.1.3-4.6.4h.5c-4.1.2-8.1 0-12.2-.6-2.1-.5-4.2-1.1-6.3-1.8-1.7-.6-3.3-1.3-4.9-2s-3.2-1.5-4.8-2.2c-1.5-.7-2.9-1.3-4.3-2.1-1.7-.9-3.3-1.7-4.9-2.7-.8-.5-1.7-1-2.5-1.6s-1.7-1.1-2.5-1.7c-3.4-2.4-6.9-4.7-10.2-7.2-.7-.5-1.4-1.1-2.2-1.7-1.3-1-2.4-2.2-3.4-3.5-.4-.7-.8-1.4-1.2-2.1-.6-1.1-1.2-2.3-1.6-3.5-.5-1.6-.9-3.3-1.1-5 0-1.2.1-2.4.3-3.6.1-.5.3-.9.6-1.3.9-.9 1.9-1.8 3-2.6 1.6-1.2 3.3-2.1 5.1-2.9 1.9-.6 3.9-1 5.9-1.3.9-.1 1.8-.2 2.8-.3 1.9-.1 3.9-.1 5.8-.1 2.1.1 4.2.1 6.3.2 3.8.2 7.7.5 11.5.5h3.4s2.3 0 3.4-.1c1.8 0 3.5-.2 5.3-.3 4-.3 8-.5 12.1-.7 2.7-.2 5.4-.3 8.1-.5s5.5-.4 8.2-.9c1-.2 1.6-1.2 1.4-2.2s-1.2-1.6-2.2-1.4c-2.3.4-4.6.6-6.9.8-4 .2-8 .5-12.1.7-4 .2-8 .5-12 .7-4.1.2-8.1.1-12.2 0-3.8-.1-7.6-.5-11.4-.6-2-.1-4.1-.1-6.1-.1-2.1 0-4.3.2-6.4.5-1.8.3-3.6.6-5.3 1.1-1.3.4-2.5.9-3.7 1.6-.5.3-1 .6-1.6 1-.4.3-.8.5-1.2.8-.8.6-1.6 1.1-2.4 1.8-1 .8-1.9 1.7-2.5 2.8-.3.6-.5 1.2-.6 1.9s-.3 1.4-.3 2.2c-.1 1.4 0 2.8.2 4.2.2 1.5.6 2.9 1.1 4.3.6 1.7 1.4 3.3 2.3 4.8.7 1.3 1.6 2.5 2.7 3.5.3.3.6.6.9.8.5.5 1 .9 1.5 1.4.7.6 1.4 1.2 2.1 1.7l2.4 1.8c1.7 1.2 3.4 2.4 5.1 3.5s3.4 2.4 5.1 3.6c1.7 1.1 3.4 2.1 5.1 3.1 3.4 1.9 7.1 3.5 10.7 5.2 2 .9 3.9 1.7 5.9 2.5 1.8.7 3.7 1.2 5.5 1.7 1.4.4 2.8.6 4.2.8.8.1 1.6.2 2.4.2 1 .1 2 .1 3 .2 2.1.1 4.2.1 6.3-.1 1-.1 2-.1 3-.2 1.1-.1 2.3-.3 3.4-.4s2.1-.3 3.2-.5c.9-.1 1.8-.3 2.6-.5.9-.2 1.7-.4 2.5-.6 1.1-.3 2.1-.5 3.2-.8 2-.6 4.1-1.1 6.1-1.7 1.9-.6 3.7-1.1 5.6-1.7.5-.2 1-.3 1.4-.5.5-.2 1.1-.3 1.6-.6.5-.2.9-.4 1.4-.6.5-.3 1.1-.5 1.6-.8 1.8-.9 3.6-1.9 5.3-2.8 1.7-1 3.4-2 5.1-3 .9-.6 1.9-1.2 2.8-1.8 1.8-1.1 3.5-2.2 5.1-3.4 1.7-1.4 3.4-2.8 5-4.3.7-.7 1.5-1.4 2.2-2 1.5-1.3 2.9-2.7 4.3-4.2s2.7-3 4-4.5c1.4-1.6 2.8-3.2 4.1-4.8.6-.7 1.1-1.5 1.7-2.3s1.1-1.6 1.6-2.4c.6-.9 1.2-1.8 1.7-2.7.6-1 1.2-2.1 1.8-3.1.5-.8.9-1.7 1.3-2.5.5-.9.9-1.8 1.3-2.7.9-1.8 1.8-3.6 2.6-5.5l1.4-3.1c.1-.3.2-.6.3-.8.3-.7.5-1.3.8-2 .7-1.8 1.3-3.7 1.8-5.6.6-2 1-4 1.2-6.1.2-1.9.2-3.8 0-5.8-.1-1.2-.2-2.3-.3-3.5-.2-2.1-.6-4.2-1.2-6.2-.3-1-.6-2-1-3-.3-1-.7-1.9-1.1-2.9s-.8-1.9-1.3-2.9c-.4-.9-.9-1.8-1.3-2.6s-.9-1.6-1.4-2.4c-.5-.9-1-1.8-1.5-2.7-1-1.8-2.1-3.6-3.4-5.3-.6-.8-1.2-1.5-1.8-2.2s-1.3-1.4-1.9-2c-.8-.8-1.6-1.5-2.4-2.2-.7-.6-1.5-1.1-2.2-1.6-1.4-.9-2.8-1.5-4.4-2-.8-.3-1.6-.5-2.4-.7-.6-.1-1.1-.1-1.7-.2-1.9-.2-3.7-.3-5.6-.3-.7 0-1.3 0-2 0-.1.4-.4.4-.8.4zm-101 8.1h-.1zm-15.2 9.5c-.1.1-.2.2-.3.3zm56.7 18.5h-.1zm93 15.3v.2c-.1 0 0-.1 0-.2zm-146.3 27-.3.2zm-3.4 3.4v.2zm126.7 11-.2.2zm-77.3 29.9h.1zm.3 0 .3.1z"/><path d="m146.8 45.4c-2 .1-4 .3-6.1.6-1.8.2-3.7.5-5.5.7-5.5.7-11.1 1.4-16.6 1.8-3.9.2-7.8.4-11.7.6-4 .2-8 .3-11.9.5s-8 .4-12 .8c-2.2.2-4.4.4-6.7.7-1.8.2-3.5.4-5.3.7-2.1.3-4.3.6-6.4.8-1.8.2-3.7.4-5.5.7-1.8.2-3.6.5-5.4.7-1 .1-2.1.3-3.1.4s-2 .2-3.1.2c-4 .3-8 .5-12 .8-1 .1-1.9.1-2.9.1-.4 0-.8 0-1.2 0-.5 0-.9 0-1.4 0-2-.1-4-.3-5.9-.5-.1 0-.1 0-.2 0-1-.1-1.9.7-1.9 1.7 0 .5.1 1 .5 1.3.3.4.8.6 1.2.6 2 .3 4 .4 6 .5h1.2 1.5c1 0 1.9-.1 2.9-.1 4.1-.3 8.3-.5 12.4-.8 1.2-.1 2.4-.2 3.5-.3 1-.1 2-.2 3-.4 1.8-.2 3.7-.5 5.5-.7 1.9-.2 3.8-.4 5.7-.7 2.2-.3 4.4-.6 6.6-.9 2.7-.4 5.3-.7 8-1 2.5-.3 5.1-.5 7.6-.7 1.9-.1 3.9-.2 5.8-.3s3.8-.1 5.7-.2c2-.1 4.1-.1 6.1-.2 1.9-.1 3.8-.2 5.7-.3 4.2-.2 8.5-.4 12.7-.8 3.9-.4 7.7-.8 11.6-1.3 1.9-.2 3.7-.4 5.6-.7s3.7-.4 5.6-.6c2-.1 4-.2 6.1-.1 2 0 4 .1 6 .2 1.9.1 3.8.1 5.7.2 2 .1 3.9.2 5.9.2 4 .1 7.9 0 11.9.2 1.8.1 3.6.2 5.4.3 2.3 0 4.6.2 6.9.5 1.2.3 2.4.6 3.5 1.1.3.2.5.3.8.5.7.6 1.3 1.4 1.8 2.1.8 1.2 1.5 2.5 2.1 3.9.7 2.3 1.1 4.6 1.3 7 .2 1.4.3 2.9.4 4.3.1 1.6.2 3.2.2 4.8.1 1.5.1 3.1.1 4.6 0 1.6.1 3.1.1 4.7.1 1.5 0 3.1-.1 4.6v.2c-.1.5-.1 1 .1 1.4.5.9 1.6 1.3 2.5.8.4-.2.7-.6.9-1 .4-2 .5-4.1.4-6.1 0-1.9-.1-3.8-.1-5.7s-.1-3.8-.2-5.7c-.1-2.2-.3-4.3-.5-6.5-.2-2.7-.6-5.3-1.4-7.9-.3-1-.7-2-1.2-2.9-.2-.5-.5-.9-.8-1.3-.7-1.2-1.5-2.3-2.5-3.3-.5-.5-1-.9-1.5-1.2-.3-.2-.7-.4-1-.5-.4-.2-.7-.3-1.1-.4-2.9-.9-5.9-1.4-8.9-1.3-2-.1-4-.2-6.1-.3-4-.2-8-.1-12-.2-2 0-4.1-.2-6.1-.2-2-.1-4-.1-5.9-.2s-3.7-.1-5.6-.2c-.4 0-.7 0-1.1 0-2.1-.4-3.9-.4-5.6-.3z"/></g><g transform="translate(3134.775 1210.67)"><path d="m125.1 55.2c0-.3 0-.6 0-1 0-.7-.1-1.3-.1-2-.1-1.9-.2-3.7-.5-5.6-.1-.5-.1-1.1-.2-1.7-.2-.8-.4-1.6-.7-2.4-.5-1.5-1.2-3-2.1-4.3-.5-.8-1.1-1.5-1.7-2.2-.7-.8-1.5-1.6-2.3-2.3-.7-.6-1.4-1.2-2.1-1.8s-1.4-1.2-2.2-1.7c-1.7-1.2-3.5-2.2-5.4-3.2-.9-.5-1.8-.9-2.7-1.4-.8-.4-1.6-.9-2.4-1.3-.9-.4-1.8-.8-2.7-1.2-1-.4-2-.8-3-1.2s-1.9-.7-2.9-1-2-.6-3-.9c-2.1-.5-4.2-.8-6.3-1-1.2-.1-2.3-.1-3.5-.1-1.9-.1-3.9 0-5.8.2-2.1.3-4.1.8-6.1 1.4-1.9.6-3.7 1.3-5.6 2-.7.3-1.3.6-2 .8-.3.1-.6.2-.8.4l-3 1.5c-1.8.9-3.6 1.9-5.4 2.8-.9.5-1.8.9-2.6 1.4s-1.7.9-2.5 1.4c-1 .6-2 1.3-3 1.9-.9.6-1.7 1.2-2.6 1.8-.8.5-1.6 1.1-2.3 1.7-.8.6-1.5 1.1-2.2 1.7-1.6 1.4-3.1 2.8-4.7 4.2-1.5 1.4-2.9 2.7-4.3 4.2s-2.7 2.9-4 4.4c-.6.8-1.3 1.5-1.9 2.3-1.5 1.6-2.9 3.3-4.2 5.1-1.2 1.7-2.2 3.5-3.2 5.3-.6 1-1.1 1.9-1.7 2.9-1 1.7-2 3.5-2.9 5.2-.9 1.8-1.8 3.6-2.7 5.4-.2.5-.5 1.1-.7 1.6s-.4.9-.5 1.4c-.2.5-.3 1.1-.5 1.7-.1.5-.3 1-.4 1.5-.7 2-1.2 3.9-1.7 5.8-.5 2-1 4.1-1.5 6.1-.3 1-.4 2.1-.7 3.2-.2.9-.3 1.7-.5 2.6s-.3 1.8-.4 2.6c-.1 1.1-.3 2.1-.4 3.2-.1 1.2-.2 2.3-.3 3.4-.1 1-.1 2-.1 3-.1 2.1 0 4.2.1 6.3l.3 3 .3 2.4c.2 1.4.6 2.8 1 4.1.6 1.8 1.2 3.7 1.9 5.4.8 2 1.8 3.9 2.7 5.8 1.7 3.5 3.5 7.1 5.5 10.5 1 1.7 2.1 3.4 3.3 5 1.2 1.7 2.5 3.3 3.7 4.9s2.4 3.4 3.7 5c.6.8 1.2 1.6 1.9 2.4.6.7 1.2 1.4 1.8 2.1.4.5.9 1 1.4 1.5.3.3.6.6.9.9 1.1 1 2.3 1.9 3.6 2.6 1.6.8 3.2 1.6 4.9 2.1 1.4.5 2.8.8 4.3 1 1.4.2 2.8.2 4.2.1.7-.1 1.4-.3 2.2-.4.6-.1 1.3-.3 1.8-.6 1.1-.7 2-1.6 2.7-2.6.6-.8 1.2-1.6 1.7-2.5.3-.4.5-.8.8-1.3s.6-1.1.9-1.6c.6-1.2 1.1-2.4 1.4-3.7.4-1.8.7-3.5.9-5.3.2-2.1.3-4.3.2-6.4 0-2-.2-4.1-.3-6.1-.2-3.8-.7-7.6-1-11.4-.3-4.1-.5-8.1-.4-12.2.1-4 .2-8 .3-12s.2-8.1.3-12.1c.1-2.3.3-4.6.6-6.9.2-1-.5-1.9-1.5-2.1s-1.9.5-2.1 1.5c-.3 2.7-.5 5.5-.6 8.2s-.1 5.4-.2 8.2c-.1 4-.2 8-.3 12.1-.1 1.8-.1 3.5-.1 5.3v3.4s.1 2.3.2 3.4c.2 3.8.6 7.7.9 11.5.2 2.1.3 4.2.5 6.3.1 1.9.1 3.9.1 5.8 0 .9-.1 1.8-.2 2.8-.2 2-.6 4-1.1 5.9-.7 1.8-1.6 3.6-2.7 5.2-.7 1.1-1.5 2.1-2.5 3-.3.3-.8.6-1.2.6-1.2.3-2.3.4-3.5.4-1.7-.1-3.4-.4-5-.9-1.2-.4-2.4-.9-3.6-1.5-.7-.4-1.5-.7-2.2-1.1-1.3-1-2.5-2.1-3.6-3.3-.6-.7-1.2-1.4-1.8-2.1-2.6-3.3-5-6.7-7.5-10-.6-.8-1.2-1.6-1.8-2.4s-1.1-1.6-1.7-2.5c-1-1.6-2-3.2-2.9-4.8-.8-1.4-1.5-2.8-2.2-4.3-.8-1.6-1.6-3.2-2.4-4.8s-1.5-3.2-2.2-4.9c-.8-2-1.4-4.1-2-6.2-.7-4-1.1-8.1-1-12.1v.5c.1-1.5.1-3.1.3-4.6.1-.8.1-1.6.2-2.4.1-.9.2-1.8.3-2.7.2-1.8.6-3.5.9-5.3.2-1.2.5-2.3.7-3.5.2-1 .5-2.1.8-3.1.9-3.7 1.9-7.3 3-11 .3-.8.6-1.6 1-2.4.3-.8.7-1.5 1-2.3.8-1.7 1.6-3.3 2.5-5 .3-.6.7-1.2 1-1.9.4-.7.8-1.5 1.2-2.2 1.2-2.1 2.4-4.2 3.7-6.3l-.1.7c.9-1.5 2-2.9 3.1-4.2.7-.8 1.4-1.6 2-2.3.7-.8 1.4-1.7 2.1-2.5.9-1 1.7-2 2.6-3 .7-.8 1.5-1.6 2.3-2.3.6-.6 1.2-1.2 1.9-1.7 1.4-1.3 2.9-2.6 4.3-4 1.5-1.4 3.1-2.6 4.8-3.8.8-.6 1.7-1.1 2.5-1.7.7-.5 1.4-.9 2.1-1.4l2.4-1.5 2.7-1.5c1.6-.8 3.1-1.6 4.7-2.4.7-.4 1.5-.8 2.2-1.1l1.8-.9c.3-.1.6-.3.9-.4 1-.4 2-.8 2.9-1.2.8-.3 1.7-.6 2.5-.9s1.7-.6 2.5-.9 1.5-.5 2.3-.7c.7-.2 1.4-.3 2.1-.4.9-.2 1.7-.3 2.6-.4 1.7-.1 3.5 0 5.2 0 1.6.1 3.2.2 4.8.4 1.2.2 2.3.4 3.5.7l1.8.5c.6.2 1.3.4 1.9.6.8.3 1.6.5 2.3.8 1.4.6 2.9 1.2 4.2 1.9 1.5.8 3 1.6 4.5 2.3 1.3.7 2.6 1.4 3.9 2.2.6.4 1.2.7 1.7 1.1.6.5 1.3 1 1.9 1.5 1.1 1 2.2 1.9 3.2 3s1.9 2.4 2.7 3.7c.3.7.6 1.3.9 2 .2.7.5 1.3.7 2 .2 1 .3 2 .4 3.1.1 1 .2 2 .2 2.9.1 1.9.2 3.9.2 5.8-.1 1-.3 1.9-.5 2.9-.2.8-.4 1.5-.6 2.3-.6 1.6-1.3 3.3-2 4.8-.5 1.1-1 2.2-1.5 3.2-1 2-2.1 3.9-3.3 5.8-.8 1.2-1.7 2.4-2.6 3.6-1.1 1.3-2.3 2.6-3.4 4-.9 1.2-1.9 2.4-2.8 3.6-.5.7-1 1.4-1.6 2-.5.6-1 1.1-1.6 1.7-.8.8-1.6 1.6-2.4 2.4-.3.3-.6.6-.9.9-.3.4-.7.7-1 1.1-.6.7-1.2 1.4-1.8 2.2-.6.9-1.3 1.7-1.9 2.6s-1.2 1.7-1.8 2.6c-.7 1.1-1.4 2.2-2.1 3.3-1 1.9-1.7 3.9-2.1 6-.2 1-.3 2-.4 3.1v2.1c0 .3.1.6.1.9.2 1.6.6 3.1 1.2 4.6.4.9.9 1.8 1.4 2.6.8 1.2 1.6 2.3 2.6 3.2 1.6 1.5 3.3 2.8 4.9 4.2 1.5 1.4 3.1 2.6 4.7 3.9.5.3 1 .7 1.5 1s1 .6 1.5.9c.8.5 1.6.9 2.4 1.3 2.9 2.1 5.5 4.4 7.9 7 1.4 1.5 2.7 3.1 3.8 4.8.3.6.5 1.1.7 1.7.1.8.2 1.7.2 2.5-.1 1-.2 2.1-.5 3.1-.6 1.5-1.3 2.9-2.2 4.2-1 1.6-2.1 3.2-3.1 4.7-1.1 1.5-2.3 2.8-3.6 4.1-.4.4-.9.8-1.3 1.2-.7.6-1.4 1.3-2.1 1.9-.8.7-1.5 1.3-2.3 2s-1.5 1.4-2.2 2c-.7.7-1.4 1.4-2.2 2-.9.7-1.8 1.4-2.7 2.1-.7.5-1.5 1.1-2.2 1.6-1.5 1.2-2.8 2.5-4.2 3.8-3 2.7-6.3 5.1-9.4 7.6-1.6 1.3-3.3 2.6-4.9 3.8-1.5 1.1-3.1 2.2-4.6 3.4-.8.6-1 1.8-.4 2.6s1.7 1 2.5.4c2.6-2 5.3-3.9 7.9-5.9 1.1-.9 2.2-1.8 3.4-2.7 1.4-1.1 2.8-2.2 4.2-3.3 1.5-1.2 2.9-2.4 4.3-3.7s2.8-2.5 4.3-3.7c1.6-1.2 3.2-2.3 4.6-3.6 1.5-1.4 3-2.7 4.5-4.1 1.6-1.4 3.1-2.8 4.6-4.2.7-.7 1.5-1.4 2.2-2.1.4-.4.8-.8 1.1-1.2l1-1.3c1.2-1.5 2.2-3.2 3.3-4.9.6-.9 1.2-1.8 1.7-2.8.4-.8.8-1.6 1.1-2.4.4-1.2.7-2.5.8-3.8.1-1.5 0-3-.3-4.4-.4-1.3-.9-2.5-1.7-3.6-.7-1.1-1.5-2.1-2.4-3-1.4-1.5-2.8-3.1-4.4-4.5-.8-.7-1.6-1.4-2.4-2.1-.7-.6-1.4-1.2-2.2-1.8-.9-.6-1.8-1.1-2.7-1.6-.8-.4-1.6-.9-2.4-1.4-.5-.3-.9-.6-1.4-.9s-.9-.7-1.3-1c-.9-.7-1.7-1.4-2.5-2.1-1.9-1.6-3.8-3-5.6-4.8-.8-.9-1.5-1.8-2-2.8-.5-.9-.9-1.9-1.2-2.9-.3-1.4-.5-2.9-.5-4.3.1-1.7.4-3.4.9-5.1.2-.6.5-1.3.8-1.9s.6-1.2 1-1.8c.3-.4.5-.9.8-1.3 1-1.6 2.1-3.1 3.2-4.7.3-.4.6-.8.9-1.2l1.1-1.3c.7-.8 1.4-1.5 2.1-2.2.6-.6 1.2-1.2 1.9-1.9s1.5-1.4 2.1-2.2 1.2-1.6 1.8-2.3c.6-.8 1.2-1.5 1.7-2.3s1.2-1.6 1.8-2.3c.7-.8 1.3-1.5 2-2.3.7-.7 1.3-1.5 1.9-2.3.6-.9 1.2-1.7 1.7-2.6 1.1-1.8 2.1-3.5 3-5.4.9-1.7 1.7-3.5 2.5-5.2.3-.7.6-1.3.9-2 .4-1 .7-2 1-3.1.3-1 .5-1.9.7-2.9.8-1.5.9-2.9.8-4.3zm-4.7 101.3v.1c0-.1 0-.1 0-.1zm-9 15.5c-.1.1-.2.2-.3.3.1-.1.2-.2.3-.3zm-20.4-56v.1c0-.1 0-.1 0-.1zm-18.4-92.5-.2.1zm-22 147.1c-.1.1-.1.2-.2.3 0-.1.1-.2.2-.3zm-3.3 3.6h-.2zm-15.3-126.3c-.1.1-.1.1-.2.2zm-27.3 78.2v-.1zm0-.2c0-.1 0-.2-.1-.2 0 0 0 .1.1.2z"/><path d="m79.8 60c0 2-.2 4.1-.3 6.1-.2 1.8-.3 3.7-.5 5.5-.5 5.6-1 11.1-1.2 16.7-.1 3.9-.2 7.8-.2 11.7-.1 4-.1 8-.1 12s-.2 8-.4 12c-.1 2.2-.3 4.5-.5 6.7-.2 1.8-.3 3.5-.5 5.3-.2 2.2-.4 4.3-.6 6.5-.2 1.9-.3 3.7-.5 5.6-.2 1.8-.4 3.6-.6 5.4-.1 1-.2 2.1-.3 3.1s-.1 2-.1 3.1c-.1 4-.3 8-.4 12v2.9 1.2 1.4c.2 2 .4 3.9.7 5.9v.2c.1 1-.6 1.9-1.6 2-.5 0-1-.1-1.3-.4-.4-.3-.6-.8-.7-1.2-.3-2-.6-4-.7-6 0-.4 0-.8 0-1.2 0-.5 0-1 0-1.5 0-1 0-1.9 0-2.9.1-4.1.3-8.3.4-12.4 0-1.2.1-2.4.2-3.5 0-1 .2-2 .3-3 .2-1.8.4-3.7.6-5.5.2-1.9.3-3.8.5-5.7.2-2.2.4-4.4.6-6.6.3-2.7.5-5.4.7-8 .2-2.5.3-5.1.4-7.6.1-1.9.1-3.9.2-5.8 0-1.9 0-3.8 0-5.7 0-2 0-4.1 0-6.1 0-1.9.1-3.8.1-5.7.1-4.2.2-8.5.4-12.7.2-3.9.6-7.8.9-11.6.2-1.9.3-3.7.5-5.6s.3-3.8.4-5.6c0-2 0-4-.1-6.1-.1-2-.2-4-.4-6-.1-1.9-.3-3.8-.4-5.7-.2-2-.3-3.9-.4-5.9-.2-3.9-.3-7.9-.6-11.8-.1-1.8-.3-3.6-.4-5.4-.1-2.3-.3-4.6-.7-6.9-.3-1.2-.7-2.3-1.3-3.4-.2-.3-.4-.5-.6-.7-.6-1-1.3-1.6-2.1-2.1-1.2-.8-2.6-1.4-4-1.9-2.3-.6-4.7-.9-7.1-1-1.4-.1-2.9-.2-4.3-.3-1.6 0-3.2-.1-4.8-.1-1.5 0-3.1 0-4.6 0-1.6 0-3.1 0-4.7.1-1.5 0-3.1.1-4.6.3-.1 0-.1 0-.2.1-.5.2-1 .1-1.4 0-.9-.4-1.3-1.5-.9-2.4.2-.4.6-.8 1-.9 2-.5 4.1-.7 6.1-.6 1.9 0 3.8 0 5.7-.1h5.7c2.2.1 4.3.2 6.5.3 2.7.1 5.3.5 7.9 1.1 1 .3 2 .7 3 1.1.5.2.9.5 1.4.7 1.2.7 2.4 1.5 3.4 2.4.5.4.9.9 1.3 1.4.2.3.4.6.6 1 .2.3.3.7.5 1.1 1 2.8 1.6 5.8 1.6 8.8.1 2 .3 4 .5 6.1.3 4 .4 8 .6 12 .1 2 .3 4.1.4 6.1s.3 3.9.4 5.9c.1 1.9.3 3.7.4 5.6v1.1c.2 1.6.3 3.4.2 5.1z"/></g><g transform="translate(3280.899 1157.582)"><path d="m.9 152.8v1c0 .7.1 1.3.1 2 .1 1.9.3 3.7.6 5.6.1.5.2 1.1.3 1.6.2.8.5 1.6.8 2.4.5 1.5 1.3 2.9 2.2 4.3.5.8 1.1 1.5 1.7 2.2.7.8 1.5 1.6 2.3 2.3l2.1 1.8c.7.6 1.5 1.2 2.2 1.7 1.7 1.1 3.6 2.2 5.4 3.1.9.4 1.8.9 2.8 1.3.8.4 1.6.9 2.5 1.2l2.7 1.2c1 .4 2 .8 3 1.1s1.9.6 2.9.9 2 .6 3.1.8c2.1.5 4.2.7 6.3.8 1.2.1 2.3.1 3.5.1 1.9.1 3.9-.1 5.8-.3 2-.3 4.1-.9 6-1.5 1.9-.7 3.7-1.3 5.5-2.1.7-.3 1.3-.6 2-.9.3-.1.6-.2.8-.4l3-1.6c1.8-.9 3.6-1.9 5.3-2.9.9-.5 1.7-1 2.6-1.5.8-.5 1.7-.9 2.5-1.5 1-.7 2-1.3 3-2 .9-.6 1.7-1.2 2.6-1.8.8-.6 1.5-1.1 2.3-1.7.7-.6 1.5-1.2 2.2-1.8 1.6-1.4 3.1-2.9 4.6-4.3 1.4-1.4 2.9-2.8 4.3-4.2s2.7-2.9 3.9-4.5c.6-.8 1.3-1.6 1.9-2.3 1.5-1.7 2.8-3.4 4.1-5.2 1.1-1.7 2.2-3.5 3.1-5.3.5-1 1.1-1.9 1.6-2.9.9-1.8 1.9-3.5 2.8-5.3s1.8-3.6 2.6-5.5c.2-.6.5-1.1.7-1.7.2-.5.3-.9.5-1.4s.3-1.1.5-1.7c.1-.5.3-1 .4-1.5.5-1.9 1-3.8 1.4-5.7.5-2.1 1-4.1 1.4-6.2.2-1.1.4-2.1.6-3.2.2-.9.3-1.7.4-2.6s.3-1.8.4-2.6c.1-1.1.3-2.2.3-3.2.1-1.2.2-2.3.2-3.5.1-1 .1-2 .1-3 0-2.1-.1-4.2-.3-6.3-.1-1-.2-2-.3-3-.1-.8-.2-1.6-.4-2.4-.3-1.4-.6-2.8-1-4.1-.6-1.8-1.2-3.7-2-5.4-.9-2-1.8-3.9-2.8-5.8-1.8-3.5-3.6-7-5.7-10.4-1.1-1.7-2.2-3.4-3.4-5-1.3-1.6-2.6-3.2-3.8-4.9s-2.5-3.3-3.8-5c-.6-.8-1.3-1.6-1.9-2.3s-1.2-1.4-1.8-2c-.4-.5-1-1-1.4-1.4-.3-.3-.6-.6-.9-.8-1.1-1-2.3-1.8-3.6-2.5-1.6-.8-3.3-1.5-5-2-1.4-.5-2.9-.8-4.3-.9-1.4-.2-2.8-.2-4.2 0-.7.1-1.4.3-2.1.5-.6.1-1.3.4-1.8.7-1.1.7-2 1.6-2.7 2.7-.6.8-1.2 1.6-1.7 2.5-.3.4-.5.8-.8 1.3s-.6 1.1-.9 1.6c-.6 1.2-1.1 2.4-1.4 3.7-.4 1.8-.7 3.6-.8 5.4-.2 2.1-.2 4.3-.1 6.4.1 2 .2 4.1.4 6.1.3 3.8.9 7.6 1.2 11.4.3 4 .6 8.1.6 12.2 0 4-.1 8-.1 12s0 8.1-.1 12.1c-.1 2.3-.2 4.6-.4 6.9-.2 1 .5 1.9 1.5 2.1s1.9-.5 2.1-1.5c.3-2.7.4-5.5.4-8.2s0-5.4 0-8.2c0-4 0-8 .1-12.1 0-1.8.1-3.5 0-5.3 0-1.1 0-2.3-.1-3.4s-.1-2.3-.2-3.4c-.2-3.8-.7-7.7-1.1-11.5-.2-2.1-.4-4.2-.6-6.3-.2-1.9-.2-3.9-.2-5.8 0-.9 0-1.8.1-2.8.2-2 .5-4 1-5.9.7-1.9 1.5-3.6 2.6-5.3.7-1.1 1.5-2.1 2.4-3.1.2-.1.4-.3.5-.4.2-.1.5-.2.7-.2 1.2-.3 2.3-.5 3.5-.5 1.7.1 3.4.3 5 .8 1.2.4 2.4.9 3.6 1.4.7.4 1.5.7 2.2 1.1 1.3 1 2.5 2 3.6 3.2.6.7 1.3 1.4 1.8 2.1 2.6 3.2 5.1 6.6 7.7 9.9.6.8 1.2 1.6 1.8 2.4s1.2 1.6 1.7 2.4c1.1 1.5 2 3.2 3 4.8.8 1.4 1.5 2.8 2.3 4.2.8 1.6 1.7 3.1 2.4 4.7s1.6 3.2 2.2 4.8c.8 2 1.5 4.1 2.1 6.2.8 4 1.3 8 1.3 12.1 0-.2 0-.3 0-.5 0 1.5-.1 3.1-.2 4.6-.1.8-.1 1.6-.2 2.4-.1.9-.2 1.8-.3 2.7-.2 1.8-.5 3.5-.8 5.3-.2 1.2-.4 2.3-.7 3.5-.2 1-.5 2.1-.7 3.1-.8 3.7-1.8 7.4-2.8 11-.3.8-.6 1.6-.9 2.4s-.7 1.5-1 2.3c-.8 1.7-1.6 3.4-2.4 5-.3.6-.7 1.3-1 1.9-.4.7-.8 1.5-1.2 2.2-1.2 2.1-2.3 4.3-3.5 6.3.1-.1.2-.3.2-.4-.9 1.5-1.9 2.9-3 4.3-.7.8-1.3 1.6-2 2.4s-1.4 1.7-2.1 2.5c-.8 1-1.7 2-2.6 3-.7.8-1.5 1.6-2.2 2.4-.6.6-1.2 1.2-1.8 1.8-1.4 1.3-2.8 2.7-4.2 4-1.5 1.4-3.1 2.7-4.8 3.9-.8.6-1.6 1.2-2.5 1.7-.7.5-1.4 1-2.1 1.4-.8.5-1.6 1.1-2.4 1.6-.9.5-1.8 1-2.7 1.6-1.5.8-3.1 1.7-4.6 2.5-.7.4-1.5.8-2.2 1.2-.6.3-1.2.6-1.8.9-.3.1-.6.3-.9.4-1 .4-2 .9-2.9 1.3-.8.4-1.7.7-2.5 1s-1.7.6-2.5.9-1.5.5-2.3.7c-.7.2-1.4.3-2.1.5-.9.2-1.7.3-2.6.4-1.7.1-3.5.1-5.2.1-1.6-.1-3.2-.1-4.8-.3-1.2-.2-2.3-.4-3.5-.7l-1.8-.5c-.6-.2-1.3-.4-1.9-.6-.8-.3-1.6-.5-2.3-.8-1.4-.6-2.9-1.1-4.3-1.8-1.5-.8-3-1.5-4.5-2.3-1.3-.7-2.7-1.4-4-2.1-.6-.4-1.2-.7-1.7-1.1-.7-.5-1.3-1-1.9-1.5-1.1-.9-2.2-1.9-3.3-2.9-1-1.1-2-2.3-2.8-3.7-.3-.7-.6-1.3-.9-2s-.5-1.3-.7-2c-.2-1-.3-2-.4-3.1-.1-1-.2-2-.3-2.9-.2-1.9-.3-3.9-.3-5.8.1-1 .2-2 .5-2.9.2-.8.4-1.5.6-2.3.6-1.7 1.2-3.3 1.9-4.9.5-1.1 1-2.2 1.5-3.2.9-2 2-4 3.1-5.9.8-1.3 1.6-2.5 2.5-3.6 1.1-1.3 2.2-2.6 3.3-4 .9-1.2 1.8-2.4 2.7-3.7.5-.7 1-1.4 1.5-2.1.5-.6 1-1.1 1.5-1.7.8-.8 1.5-1.6 2.3-2.4.3-.3.6-.6.8-.9.3-.4.7-.7 1-1.1.6-.7 1.2-1.4 1.7-2.2l1.8-2.7c.6-.9 1.1-1.8 1.7-2.6.7-1.1 1.4-2.2 2-3.3 1-1.9 1.6-4 2-6.1.2-1 .3-2.1.3-3.1 0-.7 0-1.4-.1-2.1 0-.3-.1-.6-.2-.9-.2-1.6-.6-3.1-1.3-4.6-.4-.9-.9-1.8-1.4-2.6-.8-1.2-1.7-2.2-2.7-3.2-1.6-1.5-3.3-2.7-5-4.1-1.5-1.3-3.1-2.6-4.8-3.8-.5-.3-1-.7-1.5-1s-1-.6-1.5-.8c-.8-.4-1.6-.8-2.4-1.3-2.9-2-5.6-4.3-8.1-6.8-1.5-1.4-2.8-3-3.9-4.8-.3-.6-.5-1.1-.7-1.7-.2-.8-.2-1.7-.2-2.5 0-1 .2-2.1.4-3.1.6-1.5 1.2-2.9 2.1-4.2 1-1.6 2-3.2 3.1-4.8 1-1.5 2.2-2.9 3.5-4.1.4-.4.8-.8 1.3-1.2.7-.7 1.4-1.3 2.1-2s1.5-1.4 2.2-2.1 1.4-1.4 2.2-2.1c.7-.7 1.4-1.4 2.2-2 .9-.7 1.7-1.4 2.6-2.1.7-.6 1.4-1.1 2.1-1.7 1.5-1.2 2.8-2.6 4.2-3.8 3-2.7 6.2-5.2 9.3-7.8 1.6-1.3 3.2-2.6 4.9-3.9 1.5-1.2 3-2.3 4.5-3.5.8-.6 1-1.8.4-2.6s-1.8-1-2.6-.4c-2.6 2-5.2 4-7.8 6-1.1.9-2.2 1.9-3.3 2.8-1.4 1.1-2.8 2.3-4.1 3.4-1.5 1.2-2.9 2.5-4.3 3.8-1.3 1.3-2.7 2.6-4.2 3.7-1.5 1.2-3.1 2.3-4.5 3.7-1.5 1.4-2.9 2.8-4.4 4.2s-3 2.9-4.5 4.3c-.7.7-1.5 1.4-2.2 2.2-.4.4-.8.8-1.1 1.3l-1 1.3c-1.2 1.6-2.2 3.3-3.2 4.9-.6.9-1.1 1.9-1.6 2.8-.4.8-.8 1.6-1.1 2.4-.4 1.2-.6 2.5-.7 3.8-.1 1.5 0 3 .4 4.4.4 1.3 1 2.5 1.8 3.6.7 1.1 1.5 2.1 2.4 3 1.5 1.5 2.9 3 4.5 4.4.8.7 1.6 1.4 2.4 2 .7.6 1.5 1.2 2.3 1.7.9.5 1.8 1.1 2.7 1.5.8.4 1.6.9 2.4 1.3.5.3.9.6 1.4.9s.9.7 1.3 1c.9.7 1.7 1.4 2.5 2.1 1.9 1.6 3.9 3 5.7 4.7.8.8 1.5 1.8 2.1 2.8.5.9 1 1.9 1.3 2.9.4 1.4.6 2.8.6 4.3-.1 1.7-.4 3.4-.8 5.1-.2.7-.4 1.3-.7 1.9s-.6 1.2-.9 1.8c-.3.4-.5.9-.8 1.3-1 1.6-2 3.2-3.1 4.7-.3.4-.6.9-.9 1.3l-1.1 1.4c-.6.8-1.3 1.5-2 2.3-.6.6-1.2 1.3-1.8 1.9-.7.7-1.4 1.4-2.1 2.2-.6.8-1.2 1.6-1.8 2.4s-1.1 1.5-1.7 2.3-1.1 1.6-1.7 2.3c-.6.8-1.3 1.6-2 2.4s-1.3 1.5-1.8 2.4c-.6.9-1.2 1.7-1.7 2.7-1 1.8-2 3.6-2.9 5.4-.9 1.7-1.6 3.5-2.4 5.3-.3.7-.6 1.3-.8 2-.4 1-.7 2-.9 3.1-.2 1-.5 1.9-.7 2.9.2 1.7.2 3.1.3 4.6zm2.7-101.3v-.1zm8.8-15.7.3-.3c-.1.1-.2.2-.3.3zm21.4 55.6v-.1zm20.2 92.1c.1 0 .2 0 .2-.1zm19.2-147.5.2-.3c0 .1-.1.2-.2.3zm3.3-3.6h.2zm17.6 126 .2-.2zm25.8-78.8v.1zm.1.2c0 .1 0 .2.1.2-.1 0-.1-.1-.1-.2z"/><path d="m46 147.1c0-2 .1-4.1.2-6.1.1-1.8.3-3.7.4-5.5.4-5.6.8-11.1.9-16.7 0-3.9 0-7.8 0-11.7 0-4-.1-8-.2-12s0-8 .2-12c.1-2.2.2-4.5.4-6.7.1-1.8.3-3.6.4-5.3.2-2.2.4-4.3.5-6.5.1-1.9.2-3.7.4-5.6.1-1.8.3-3.6.4-5.4.1-1 .2-2.1.2-3.1s.1-2 .1-3.1c.1-4 .1-8 .1-12 0-1 0-2 0-2.9 0-.4 0-.8 0-1.2 0-.5 0-.9-.1-1.4-.2-2-.5-3.9-.8-5.9 0-.1 0-.1 0-.2-.1-1 .6-1.9 1.6-2 .5-.1 1 .1 1.4.4s.6.7.7 1.2c.4 2 .7 4 .9 6 0 .4 0 .8.1 1.2 0 .5.1 1 .1 1.5v2.9c0 4.1-.1 8.3-.1 12.4 0 1.2-.1 2.4-.1 3.5 0 1-.1 2-.2 3-.1 1.8-.3 3.7-.5 5.5-.1 1.9-.2 3.8-.4 5.7-.2 2.2-.3 4.4-.5 6.6-.2 2.7-.4 5.4-.6 8.1-.2 2.5-.2 5.1-.3 7.6v5.8c0 1.9.1 3.8.1 5.7 0 2 .1 4.1.1 6.1v5.7c0 4.2 0 8.5-.2 12.7-.2 3.9-.4 7.8-.7 11.6-.1 1.9-.2 3.7-.4 5.6s-.2 3.8-.3 5.7c0 2 .1 4 .2 6.1.1 2 .3 4 .5 6 .2 1.9.3 3.8.5 5.6.2 2 .4 3.9.6 5.9.3 3.9.5 7.9.8 11.8.2 1.8.4 3.6.5 5.4.1 2.3.4 4.6.9 6.9.3 1.2.8 2.3 1.3 3.4.2.3.4.5.6.7.7.6 1.4 1.2 2.2 1.7 1.3.8 2.6 1.4 4 1.8 2.3.5 4.7.8 7.1.9 1.4.1 2.9.1 4.3.2h4.8c1.5 0 3.1-.1 4.6-.1 1.6 0 3.1-.1 4.7-.1 1.5 0 3.1-.1 4.6-.4.1 0 .1 0 .2-.1.5-.2 1-.2 1.4 0 .9.4 1.3 1.5.9 2.4-.2.4-.5.8-1 1-2 .5-4.1.7-6.1.7-1.9.1-3.8.1-5.7.2s-3.8.1-5.7.1c-2.2 0-4.4-.1-6.5-.2-2.7 0-5.3-.4-8-.9-1-.3-2-.6-3-1.1-.5-.2-.9-.5-1.4-.7-1.2-.6-2.4-1.4-3.5-2.3-.5-.4-.9-.9-1.3-1.4-.2-.3-.4-.6-.6-1-.2-.3-.3-.7-.5-1.1-1.1-2.8-1.7-5.8-1.8-8.8-.2-2-.4-4-.6-6.1-.4-4-.5-8-.8-12-.2-2-.4-4-.6-6.1-.2-2-.3-3.9-.5-5.9-.2-1.9-.3-3.7-.5-5.6 0-.4 0-.7-.1-1.1-.2-1.5-.2-3.2-.3-5z"/></g></g></g></svg>