<svg enable-background="new 0 0 468.5 635" viewBox="0 0 468.5 635" xmlns="http://www.w3.org/2000/svg"><g transform="matrix(.914 -.407 .407 .914 -6237.336 -612.169)"><g fill="#fff"><path d="m5483.7 3221.9c-35.8-4.3-32.4 43.7-17.8 63.8 12.8 20.1 40.7 15.2 56.4 30.5 10.6 9.7 9.1 24.5 7.3 37.4-.9 11.3-1.7 25.1 2.4 35.4 8.9 21.3 24.9.6 33.1-9.5 5.7-7.1 12.1-13.6 19.8-18.6 14.8-12.6 29.2-7.1 44.5 1.2 11.2 6.3 23.8 11.5 36.8 11.7 36.4 2.3 68.5-31.1 64.3-67.4-.3-20.2-10.1-40-27.9-50.7-16.3-12.2-37.4-10.3-56.6-12.6-24.6-3.4-48.5-11-73-14.9-6.1-1.3-12.4-.8-18.2 1.4-10.2 4-21.4 4.5-31.9 1.4-12.8-3.8-25.6-9.2-39.2-9.1z"/><g transform="translate(5342.611 3353.778)"><path d="m170.9 227c.8-1.8 1.7-3.6 2.8-5.3.3-.4 1.9-.4 2.7 0 3.2 1.4 4.6 9.2 2.2 11.7-1.8 1.9-5.5 1-6.6-1.7-.5-1.6-.8-3.1-1.1-4.7z"/><path d="m170.8 199.1c.2.7.3 1.4.6 2.9.8-1.3 1.2-1.9 1.9-2.9.7 2.7 1.7 5 1.6 7.2-.2 2-1.1 3.9-2.5 5.4-.6.7-3.2.5-4.1-.3-2.3-2-1.8-4.9-1-7.4.8-1.8 1.7-3.6 2.8-5.3z"/><path d="m105 96.8c1.8.9 4.3 1.3 4.7 2.5.6 1.6-.3 3.8-.8 5.7-.7.3-1.5.3-2.2 0-1.1-.9-1.9-2.1-2.4-3.5-.3-1.1.3-2.5.7-4.7z"/><path d="m122.7 91.5c-1.6.3-3.3.5-4.9.5-1-.1-2.7-.8-2.7-1.4-.2-1.8.1-3.8 2.5-4.2.7-.1 1.6.2 2.3-.1 2.8-.9 3.1.6 2.9 2.8-.2.9-.2 1.7-.1 2.4z"/><path d="m6.1 63.3c-.2.7-.6 1.3-.9 1.9-.7.8-1.5 1.6-2.2 2.3-1-1-2.5-1.8-2.8-2.9-.4-1.5.1-3.2.5-4.8.7-.4 1.6-.5 2.4-.2 1.1 1.2 2.1 2.4 3 3.7z"/><path d="m282.2 143.4c-3.5 1.3-4.6-.6-5.4-2.5-1.2-2.7-.5-5 2.9-6.7.8 3.1 1.6 6.2 2.5 9.2z"/><path d="m301.8 112.7c-1.5-1.8-2.9-3.7-4.1-5.6-.3-.6.5-2.2 1.2-2.9.8-.4 1.7-.4 2.5.1.8 1.3 1.5 2.8 1.8 4.3.2 1.2.3 2.4.2 3.6z"/><path d="m76.3 119.9c.5-2.5 1.1-4.5 3.5-4.5.9 0 2.6 2.3 2.4 2.7-1.1 1.6-2.4 3.2-3.8 4.6z"/><path d="m292.1 92.5c-.4.6-1.1 2.4-1.5 2.4-1.9-.3-3.8-1-5.5-1.9-.5-.3-.2-2-.2-3 1.2 0 2.5-.4 3.6 0 1.2.4 2.1 1.5 3.6 2.5z"/><path d="m143 110c-1.1-3.7-.2-6.4 4.3-7.5-.4 1.3-.8 2.5-1.1 3.8 0 .3 0 .7.2 1 .3.5.7 1 1 1.5-.6.1-1.1.2-1.7.4-.9.2-1.8.5-2.7.8z"/><path d="m138.7 70c-.8 1.5-1.8 3.8-2 3.7-1.6-.4-3.6-1.2-3.1-3.4.4-1.2 1.3-2.1 2.4-2.5.6-.2 1.7 1.3 2.7 2.2z"/><path d="m39.9 111.4c-.5 1.5-.6 2.8-1.3 3.3s-1.9.1-2.2.1l-3.7 1.6c-.4-.9-.7-1.9-.9-2.4z"/><path d="m180.5 241.6c4 1.6 3.9 3.8 2.7 6.8-1-.4-2.8-.7-3-1.3-.3-1.7.1-3.5.3-5.5z"/><path d="m259 101.4c.3 1.9.6 3.9.9 5.9-1.8-.6-4.4 0-4.2-2.8.1-1.2 1.4-2.3 2.2-3.4z"/><path d="m192.3 251.6c-.7-1.4-1.3-2.8-1.8-4.2-.1-.4 1.1-1.6 1.3-1.5 1.3.7 2.6 1.5 3.8 2.3l-2.2 3.2z"/><path d="m132.7 62.4c.4-1.2.5-2.7 1.2-3.5.5-.5 2.2 0 3.1.4.5.3.8 1.5.7 2.2 0 .4-1.1.8-1.8.9-1 .1-2.1.1-3.2 0z"/><path d="m56.3 96c-1.3 1.4-2.3 3.1-4.1 1.4-.6-.5-.7-2.5-.3-2.9 1.9-1.5 3.1-.1 4.4 1.5z"/><path d="m149.4 75.9c.3 1.2.5 2.1.7 3l-1.3.3c-.4-2.1-.9-4.1-1.2-6.2 0-.2 1.6-1.1 2-.8.7.5 1.1 1.3 1.1 2.1-.1.7-1 1.3-1.3 1.6z"/><path d="m135.2 80.9c-1-1.3-2-2.2-1.9-2.6.4-1 1.2-1.9 2.1-2.5.3-.2 2.2 1.3 2.1 1.6-.3 1.1-1.2 1.9-2.3 3.5z"/><path d="m224.2 134.1h-4.2c.4-1.2.8-2.4 1.4-4.1 1 .3 2.4.3 2.9 1 .4.7-.1 2-.1 3.1z"/><path d="m68.1 87.1c-1-1.2-2.3-2.2-2.1-2.7.3-.9 1.4-1.5 2.2-2.3.8.8 1.5 1.7 2.1 2.7.1.4-1.2 1.3-2.2 2.3z"/><path d="m195.8 90.1c1.2 1.1 2 1.5 2.2 2.1.3 1.1.5 2.2.5 3.4 0 .1-1.6.5-1.7.4-.5-.9-1-1.9-1.2-2.9 0-1.1 0-2 .2-3z"/><path d="m266.2 95.1c1.1 1.4 2.2 2.2 2.3 3.1 0 .7-1.2 1.5-1.8 2.2-.7-.7-1.8-1.3-1.9-2.1-.2-.8.6-1.7 1.4-3.2z"/><path d="m212.5 184.2c-1.4.8-2.8 1.7-4.9 2.9-.1-1.1-.5-3-.3-3.1 1.7-.5 3.4-.8 5.1-1.1z"/><path d="m173.1 81.3c-.7.7-1.5 1.3-2.4 1.7-.3.1-1.6-1.2-1.5-1.4.5-1.1 1.2-2 2.1-2.7.4-.2 1.5.8 2.3 1.2-.2.4-.3.8-.5 1.2z"/><path d="m189.2 201.4 3.1-2.8 1.5 1.8-3.5 2.5z"/><path d="m137.9 130c-.6-1.3-1.5-2.3-1.3-2.8.4-.8 1.4-1.4 2.2-2 .5.7 1.6 1.6 1.5 2.1-.2.8-1.3 1.5-2.4 2.7z"/><path d="m224.7 168.7 3.5-2.1 3.2 2.4c0 .3-.1.6-.1.8z"/><path d="m268.7 77.6-2-1.9 4-2.5 1.9 1.8z"/><path d="m265.3 116.4c.5.5.9 1 1.2 1.6.3.8.5 1.6.5 2.5.1.6 0 1.3-.3 1.8-.2.3-1.3.5-1.5.3-.4-.6-.7-1.2-.7-2 .2-1.3.5-2.8.8-4.2z"/><path d="m155.4 198.2c.5-2 .9-3.3 1.3-4.7.6.3 1.7.4 1.8.8.6 1.7.3 3.2-3.1 3.9z"/><path d="m345.6 90.6c1.2 1.3 2.3 2.5 3.9 4.3l-4.7-.4v-3.6z"/><path d="m152.4 114.7c.2-1.4.4-2.7.7-4.1l1-.3c.6.8 1.8 1.8 1.6 2.4-.3.9-1.4 1.6-2.2 2.4z"/><path d="m127.1 162.9c1 1.1 1.6 1.8 2.3 2.5-.8.6-1.6 1.1-2.5 1.4-.4.1-1.5-1-1.5-1.5.1-.7.9-1.3 1.7-2.4z"/><path d="m222.2 75.2c.5.7 1.1 1.4.9 1.6-.8 1.1-1.6 2.2-2.6 3.1-.6-.4-1.1-.8-1.6-1.2z"/><path d="m90.3 67.3c-.9.8-1.8 1.5-2.8 2.1-.2.1-1-.9-1.5-1.5l3.6-1.9c.2.4.4.9.7 1.3z"/><path d="m217.7 126c-1.1-.9-2.2-1.9-3.2-2.9-.1-.1.5-.9.8-1.3l3.4 3c-.3.5-.6.8-1 1.2z"/><path d="m182.5 229.5c-.6-2.1-1-3.2-1.3-4.4.3-.2.6-.3.9-.4.3.6.6 1.2.8 1.7l2.1-.4c-.6.9-1.3 1.8-2.5 3.5z"/><path d="m231.1 96.8c.8.7 1.5 1.6 2 2.5.1.3-.9 1.4-1.4 1.3-.8-.1-1.4-.6-1.7-1.3-.2-.5.5-1.3 1.1-2.5z"/><path d="m195.7 102.3c-.1 1.9-.2 3.3-.4 5.1-2.8-2.2-2.8-2.8.4-5.1z"/><path d="m198.2 69.3c-.7-1-1.3-2-2.2-3.3 3-.4 4.1.3 2.2 3.3z"/><path d="m280.2 116.6c-.6-1-1.1-2.1-1.5-3.2.5-.4 1-.7 1.5-.9l1.4 3.5c-.4.2-.9.4-1.4.6z"/><path d="m102.5 3.4c-.6-.9-1.3-1.6-1.1-1.9.3-.7 1.1-1.4 1.7-1.5.5 0 1 1 1.5 1.6z"/><path d="m32.7 37.8c-1.2.8-1.8 1.6-2.4 1.6-.7 0-1.4-.7-2-1.1.6-.6 1.1-1.5 1.8-1.7.5-.2 1.3.5 2.6 1.2z"/><path d="m184.2 127.9c-.8 1.2-1.6 2.6-2.4 3.9-.2.3-.5.5-.9.5-.3 0-.8-.5-.7-.7.2-.8.3-1.9.9-2.3 1-.6 2-1.1 3.1-1.4z"/><path d="m113.8 46.2 1.4-3.6c.4.3 1.3.7 1.2.8-.4 1.2-.9 2.3-1.4 3.4z"/><path d="m85.1 105.9c-.7 1.3-1.4 2.5-2 3.7l-.7-.2c-.2-1.1-.4-2.1-.5-3z"/><path d="m155.2 162.1c-.8-.9-1.5-1.9-2.2-3 .6-.6 1.3-1.2 2-1.7l.9 4z"/><path d="m201.4 90.8c-.7-1.1-1.3-2.2-1.9-3.4-.1-.2.6-1 1-1.2.3-.1 1 .5 1.2.9.2 1 .4 2 .5 3z"/></g><path d="m5719.5 3411.5c-60.9-68.5-193.7 85.2-220.3-39.4-18.4-32.5-65-27-96.5-22.2-70.2 10.6-89.1 81.2-28.6 121.8 16.4 12.2 34.5 22 49.9 35.5 30 26.3 23.2 71.2 45.2 101.9 38 47.7 82.4 28.1 94.9-27.4 4.9-13.7 11.7-26.6 20.2-38.5 23.5-50.5 155.2-65.9 135.2-131.7z"/></g><g fill="#353535" stroke="#353535" stroke-miterlimit="10.0052" stroke-width="2.1711" transform="translate(5390.23 3227.149)"><path d="m224 79.5v-.4z"/><path d="m317.6 75.8c-.2-.3-.5-.6-.8-.7-.9-.4-1.7-.8-2.5-1.2-.9-.5-1.7-1-2.5-1.5-.5-.4-1.1-.7-1.6-1.1-.4-.2-.7-.5-1.1-.8-.8-.6-1.6-1.2-2.3-1.8-.9-.8-1.8-1.6-2.8-2.4-1.1-1-2.2-2-3.4-3-1.1-1-2.3-2-3.4-3-1.2-1.1-2.4-2.3-3.6-3.4-1.2-1.2-2.4-2.3-3.7-3.4l-.6-.5c.6-.9 1.2-1.8 1.7-2.7.7-1.3 1.3-2.6 1.8-3.9.5-1.5.9-3 1.1-4.5s.3-3 .2-4.5-.4-3-.9-4.5c-.8-2.8-2.1-5.4-3.8-7.8-1-1.4-2.2-2.7-3.4-3.9-1.4-1.5-2.9-2.9-4.5-4.2-1.3-1-2.7-2-4.1-2.9l-1.1-.7c-.4-.3-.8-.5-1.2-.7-.9-.5-1.9-1.1-2.9-1.6-1.2-.6-2.4-1.2-3.6-1.7-.8-.4-1.6-.7-2.4-1-.7-.3-1.3-.6-2-.8-.3-.1-.5-.2-.8-.3-1.2-.4-2.4-.9-3.6-1.3l-1.2-.4c-.3-.1-.7-.2-1-.3-1.3-.4-2.6-.7-3.9-1.1-.9-.2-1.8-.4-2.6-.6-1.1-.2-2.1-.5-3.2-.7-1.2-.2-2.4-.4-3.7-.7-.8-.1-1.5-.3-2.3-.4-2.1-.3-4.2-.6-6.4-.8-1.4-.1-2.7-.3-4.1-.4-.8-.1-1.7-.1-2.5-.2l-3.3-.2c-.2 0-.5 0-.7 0-.1 0-.2 0-.3 0-.8 0-1.6 0-2.3 0-.6 0-1.2 0-1.8 0-.2 0-.4 0-.7 0l-4.1.2c-.8 0-1.6.1-2.4.2-1.4.1-2.8.3-4.2.4-.8.1-1.5.2-2.2.3-1.3.2-2.6.4-3.9.6-.9.1-1.7.4-2.6.6l-3.4.5c-1 .2-2 .5-3 .8-.9.2-1.8.4-2.6.7-1.1.3-2.2.6-3.3.9-1 .3-1.9.5-2.9.8l-.1.1h.1l-.3.1h.1-.1c-1.7.6-3.4 1.2-5.1 1.7l-.4.1.1-.1c-.1 0-.2.1-.2.1h-.1.1c-.9.3-1.8.7-2.7 1.1-1.1.4-2.2.9-3.2 1.3-.9.4-1.8.8-2.7 1.2-1 .4-1.9.8-2.9 1.2-1.1.5-2.1 1-3.2 1.5-.7.3-1.5.7-2.2 1.1l-3.6 2.1c-.7.4-1.3.8-2 1.2l-3 1.9c-1 .6-1.9 1.3-2.9 1.9-.7.5-1.4.9-2.1 1.4l-3.3 2.5c-.7.5-1.3 1-1.9 1.5s-1.1.9-1.7 1.4c-.3.2-.5.4-.8.6-1.5 1.4-3 2.8-4.5 4.2l-2.7 2.8c-.7.7-1.3 1.4-1.9 2.2-.4.5-.9 1-1.3 1.5-.2.3-.5.5-.7.8-.8 1-1.6 2-2.4 3-1.3 1.7-2.6 3.4-3.8 5.1-.5.7-1 1.5-1.5 2.2-.5.8-1 1.6-1.5 2.4-.7 1.2-1.3 2.4-2 3.6-.5.8-.9 1.7-1.3 2.5-.4.9-.9 1.8-1.3 2.7-.5 1.2-1.1 2.4-1.6 3.7-.3.7-.6 1.5-.9 2.2-.4 1-.9 2.1-1.3 3.1-.4 1.1-.9 2.3-1.3 3.4-.1.3-.3.6-.4.9-.1.5-.3 1-.4 1.4-.2.7-.4 1.4-.6 2.1-.1.3-.2.6-.3.9-.3 1.3-.6 2.5-.9 3.8-.2 1-.4 2.1-.6 3.1-.2.9-.3 1.8-.5 2.6-.8 4.1-1.3 8.3-1.6 12.5-.1 1-.1 2-.1 3.1v3.8c0 1.1.1 2.2.1 3.2 0 .9.1 1.8.1 2.7.1 1.1.1 2.1.2 3.2.1 1.2.2 2.4.3 3.7.1 1.1.3 2.3.4 3.4.1.9.2 1.8.3 2.7.2 2.2.4 4.4.5 6.6.1 1.3.1 2.6.2 3.8 0 1.1.1 2.3.1 3.5v2.8c0 2 0 4-.2 6-.1 1.3-.2 2.5-.3 3.8-.1 1-.2 2.1-.3 3.1-.2 1.9-.5 3.7-.7 5.6-.3 1.9-.5 3.8-.8 5.7-.1.7-.2 1.5-.3 2.2-.1 1.1-.2 2.2-.3 3.3-.1.9-.1 1.8-.1 2.7 0 .7 0 1.5-.1 2.2v2.6c0 1.1 0 2.2.1 3.2 0-.1 0-.1 0-.2.1.8.1 1.6.2 2.4 0-.1 0-.3 0-.4.1 1.1.2 2.2.3 3.3.1 1 .2 2.1.4 3.1.2.8.9 1.3 1.7 1.1s1.3-.9 1.1-1.7c-.1-1-.2-1.9-.4-2.9-.1-1-.2-2-.3-3.1v.4c0-.8-.1-1.6-.1-2.4 0-1-.1-2-.1-3 0-1.2 0-2.3 0-3.5 0-.4 0-.7 0-1.1 0-.8.1-1.5.1-2.3 0-1 .2-2 .2-3 .2-1.9.4-3.8.7-5.7.3-2.3.6-4.7 1-7 .1-.7.2-1.4.2-2.1.1-.8.2-1.7.3-2.5.1-1.9.3-3.7.3-5.6 0-.8.1-1.7.1-2.5 0-1.1 0-2.2 0-3.3 0-.7 0-1.4-.1-2.1 0-1-.1-2.1-.1-3.1v.4c-.2-3.5-.4-7.1-.7-10.6-.2-1.9-.4-3.7-.6-5.6-.2-1.6-.3-3.3-.5-4.9-.1-2-.2-4-.3-6 0-.9-.1-1.9-.1-2.8 0-.7 0-1.4 0-2.2 0-.4 0-.8 0-1.2.1-1.2.1-2.5.2-3.7 0-1 .2-2 .3-2.9.2-1.9.5-3.8.8-5.7.4-2.7.9-5.3 1.4-8 .2-1.1.5-2.2.8-3.3.2-.9.5-1.7.7-2.6.3-.9.5-1.8.8-2.7l1.4-3.7c.3-.9.7-1.7 1.1-2.5s.7-1.7 1.1-2.5c.5-1.3 1.1-2.5 1.6-3.8.3-.8.7-1.5 1.1-2.3s.7-1.5 1.1-2.3c.4-.7.8-1.5 1.2-2.2s.7-1.3 1.1-2c.5-.8 1-1.6 1.6-2.5.4-.6.7-1.2 1.1-1.8.6-.8 1.2-1.6 1.7-2.4.4-.6.9-1.2 1.3-1.8 1.1-1.4 2.2-2.8 3.3-4.2.7-.8 1.4-1.5 2-2.3.6-.6 1.1-1.2 1.7-1.8 1-1 1.9-2 2.9-3 .6-.6 1.2-1.2 1.8-1.7.5-.5 1.1-1 1.6-1.5.2-.2.5-.5.7-.7 1-.8 2-1.6 3-2.4 1.6-1.3 3.3-2.5 5-3.8.6-.5 1.3-.9 2-1.3l2.4-1.6c-.1.1-.2.1-.3.2 1-.6 1.9-1.2 2.9-1.8.7-.4 1.3-.9 2-1.2 1.2-.7 2.4-1.4 3.7-2.1.7-.4 1.4-.7 2.1-1 1.1-.5 2.2-1.1 3.4-1.6.9-.4 1.8-.8 2.7-1.2 2-.8 4-1.7 6-2.5l2.7-1.1.4-.1c1.8-.6 3.6-1.2 5.4-1.9h-.1.1.1c.2-.1.5-.1.7-.2.7-.2 1.4-.4 2.1-.6 1-.3 1.9-.6 2.9-.8 1.1-.3 2.2-.6 3.3-.8.8-.2 1.6-.4 2.4-.6 1.3-.3 2.6-.6 3.9-.9.7-.2 1.4-.3 2.2-.4 1.4-.2 2.8-.5 4.2-.7.7-.1 1.4-.2 2.1-.3 1.4-.1 2.8-.3 4.2-.4 1 0 2.1-.1 3.1-.1.8 0 1.7-.1 2.5-.1 2.1 0 4.2 0 6.3.2 2.2.1 4.4.3 6.5.5l3.6.3c1 .1 2 .3 3 .4 1.2.2 2.3.3 3.5.5 1.5.3 3 .5 4.5.8 1 .2 2.1.5 3.1.7.8.2 1.6.3 2.4.5 1.3.4 2.7.7 4 1.1.8.2 1.5.5 2.2.8 1.1.4 2.2.8 3.2 1.1.3.1.7.3 1 .4.7.3 1.5.6 2.2.9.8.3 1.5.6 2.3 1 1 .5 2.1 1 3.1 1.5.6.4 1.3.7 1.9 1.1.6.3 1.2.6 1.7 1l2.6 1.7c1.3.9 2.5 1.8 3.7 2.8 1.1 1 2.2 2.1 3.3 3.2 1.2 1.2 2.2 2.5 3.2 3.8 1.1 1.7 2 3.6 2.7 5.5 1.2 3.1 1.4 6.6.6 9.8-.5 1.9-1.1 3.8-2 5.6-.8 1.6-1.9 3.1-3.1 4.5-1.8 1.9-3.8 3.7-5.9 5.1-3.1 1.8-6.3 3.3-9.7 4.3-2.9 1-5.7 2.1-8.5 3.1-.1 0-.1 0-.2.1l.2-.1h-.1-.1c-.4.1-.8.3-1.2.4l-.8.3h-.1l-.3.1.4-.1c-.9.3-1.8.6-2.7.8-1 .3-2 .6-3 .8-2 .5-4 1.1-6.1 1.7-2 .5-4 1.1-5.9 1.6-1 .3-2 .6-3.1.9s-2 .6-3.1.8c-1.4.3-2.8.6-4.2.9-.6.1-1.2.2-1.8.3l-2.5.3c-2.6.4-5.2.6-7.8.8-1.9.1-3.9.2-5.8.2-2.2 0-4.4 0-6.6-.1-1 0-2.1-.1-3.1-.1-1-.1-1.9-.2-2.9-.3-.9-.1-1.9-.2-2.8-.4-1-.1-2.1-.3-3.1-.4-1.6-.3-3.1-.5-4.6-.8-1-.2-2-.4-3-.7-1.2-.3-2.4-.7-3.6-1.1s-2.4-.8-3.6-1.3c-1-.4-2-.9-3.1-1.3-.8-.4-1.5-.8-2.2-1.2-.6-.3-1.1-.7-1.7-1-.4-.2-.7-.5-1.1-.7-.9-.7-1.9-1.3-2.8-2-.3-.3-.7-.5-1-.8l-.8-.6-.1-.1c-.1-.1-.2-.2-.2-.2l-.1-.1c-.1-.1-.1-.1-.2-.2s-.1-.1-.1-.1c-.1-.1-.2-.1-.2-.2-.1-.1-.1-.1-.2-.2-.3-.3-.7-.6-1-.9-.5-.5-1-1.1-1.5-1.7h.3-.3c2-.1 4-.3 6-.5 2.1-.2 4.1-.3 6.2-.5 4-.3 8.1-.7 12.1-1 4.2-.4 8.4-.8 12.6-1.2 4.2-.5 8.5-1.1 12.7-1.6 4-.5 8.1-1 12.2-1.4 2.3-.2 4.6-.4 6.9-.6 2.2-.2 4.3-.3 6.5-.5 1.8-.1 3.6-.3 5.5-.5 2.3-.2 4.6-.5 6.9-.8 4-.5 8.1-1.3 12.1-2.1 1.8-.4 3.7-.8 5.6-.9h1c.4 0 .8-.1 1.1-.4.6-.5.7-1.5.1-2.1-.2-.3-.6-.5-1-.5-1.4 0-2.7.2-4.1.4-.7.1-1.3.3-2 .4-1 .2-2 .4-3 .6-2 .4-4.1.8-6.1 1.2-1 .2-2 .3-2.9.5l-3.9.5c-1.9.2-3.8.4-5.6.6-2.3.2-4.6.4-6.9.6-2.2.2-4.4.4-6.6.5-3.9.3-7.7.8-11.6 1.3-4.5.5-8.9 1.1-13.4 1.7-4.1.5-8.2 1-12.3 1.3s-8.2.7-12.3 1.1c-4.1.3-8.3.6-12.4 1-1.1.1-2.1.2-3.2.3h.1c-.5 0-.9.1-1.4.1-.3 0-.6.1-1 .2-.3.1-.5.2-.7.4s-.3.4-.4.6-.2.4-.2.6c0 .3 0 .5.1.8s.2.6.4.9c.3.6.6 1.1 1 1.6s.8.9 1.3 1.4c.4.3.7.7 1.1 1 0 0 0 0 .1.1s.1.1.2.2.1.1.2.1l.2.2s.1 0 .1.1c-.4.5-.8.9-1.2 1.4-.9 1.1-1.9 2.1-3 3.1s-2.3 2-3.3 3.1c-2.4 2.4-4.8 4.8-7.2 7.1-.7.6-1.3 1.3-1.9 2-.8.9-1.7 1.8-2.4 2.7-.2.3-.3.7-.2 1.1s.3.7.6.9.7.3 1.1.2.7-.3.9-.6c.2-.2.4-.5.6-.7 1.1-1.2 2.1-2.3 3.3-3.5.6-.6 1.3-1.3 1.9-1.9l1.4-1.4c1.2-1.2 2.5-2.5 3.7-3.7 1.1-1.1 2.2-2.1 3.4-3.2.8-.7 1.5-1.5 2.2-2.2.8-.9 1.6-1.8 2.3-2.7l.4.3c.5.4 1 .8 1.5 1.1.8.6 1.6 1.1 2.4 1.7.4.3.9.6 1.4.8.4.2.7.4 1.1.6 1 .5 2 1.1 3.1 1.5.6.2 1.1.5 1.7.7.4.2.9.3 1.3.5 1 .4 2.1.7 3.1 1.1s2.1.6 3.1.9l1.2.3c-.2.1-.4.3-.5.5-.8 1.5-1.6 3-2.3 4.6-.3.7-.6 1.4-.9 2.1-.4 1-.7 1.9-1.1 2.9-.6 1.5-1.1 3-1.6 4.4-.2.6-.4 1.3-.6 2s-.5 1.4-.7 2.2c-.6 2.2-1.2 4.4-1.8 6.5-.3 1.1-.5 2.1-.7 3.2-.1.6-.2 1.2-.3 1.8 0 .2-.1.4-.1.7 0 .1 0 .2-.1.4v1.2c.1.4.3.7.6.9.7.5 1.6.3 2-.4.2-.3.3-.6.2-.9v.1c0-.7.1-1.5.3-2.2.1-.5.2-1 .3-1.5.1-.7.3-1.4.5-2.1.2-.9.5-1.8.7-2.7.2-.7.4-1.3.6-1.9.2-.7.4-1.4.6-2.1.5-1.5.9-3 1.5-4.4.6-1.6 1.1-3.1 1.8-4.7.4-1.1.9-2.2 1.4-3.4.2-.5.5-1.1.7-1.6l.8-1.6c.3-.5.6-1.1.9-1.6.2-.3.3-.7.2-1.1 0-.2-.1-.4-.3-.6 1.1.2 2.3.4 3.4.7 1.9.4 3.8.6 5.7.9 2.2.3 4.3.5 6.5.6s4.3.2 6.5.2c1.9 0 3.8 0 5.7-.1 1.1-.1 2.3-.1 3.4-.2s2.1-.2 3.2-.3c.2 0 .5-.1.7-.1 0 .6 0 1.2.1 1.8.1.9.1 1.8.2 2.7 0 .8.2 1.5.2 2.3.2 1.7.4 3.4.6 5.1.4 3 .7 5.9 1.1 8.9.2 1.5.4 3 .7 4.5.2 1.2.4 2.4.6 3.6.2.8.9 1.3 1.7 1.1s1.3-.9 1.1-1.7c-.3-1.5-.5-3.1-.7-4.6s-.5-2.9-.6-4.4c-.4-3.3-.8-6.7-1.3-10-.2-1.3-.3-2.7-.5-4-.1-1.2-.2-2.4-.3-3.6 0-.7 0-1.3 0-2 1-.1 1.9-.2 2.9-.4 2.1-.3 4.2-.8 6.2-1.2 1-.2 2.1-.5 3.1-.8s2-.6 3.1-.9c3-.9 6-1.7 9-2.5 1.6-.4 3.1-.8 4.7-1.3.6 1.6 1.3 3.1 1.9 4.7.6 1.4 1.2 2.8 1.8 4.2 1.4 2.9 2.8 5.8 4.1 8.7.6 1.2 1.2 2.5 1.7 3.8.6 1.3 1.1 2.6 1.7 3.9 1.1 2.6 2.2 5.2 3.4 7.7.4.7 1.2 1 2 .7.7-.4 1-1.2.7-2-1.4-2.8-2.6-5.8-3.9-8.6-.7-1.5-1.3-3-2-4.5s-1.4-2.9-2-4.4c-.5-1.2-1.1-2.3-1.6-3.5-.6-1.3-1.3-2.6-1.9-3.9-1.1-2.5-2.1-5-3.1-7.5.4-.1.8-.2 1.2-.4l.2-.1-.4.4c.1 0 .2-.1.3-.1.4-.1.8-.3 1.3-.4l.6-.2c.1 0 .2-.1.3-.1h-.1c1.9-.7 3.8-1.4 5.7-2.1 2-.7 4.1-1.5 6.1-2.2.9-.3 1.8-.7 2.6-1.1.6-.3 1.1-.5 1.7-.8 1.2-.6 2.3-1.2 3.3-2 1.1-.7 2.1-1.5 3-2.4.5-.4 1-.9 1.4-1.3s.8-.8 1.2-1.2c.3.2.6.5.9.7.6.5 1.1 1 1.7 1.5.6.6 1.3 1.2 1.9 1.8 1 1 2 2 3.1 3s2.3 2.1 3.4 3.1c1.3 1.2 2.5 2.3 3.8 3.5 1.1.9 2.1 1.8 3.2 2.7.5.4 1.1.8 1.6 1.2.4.3.9.7 1.3 1 .7.4 1.3.9 2 1.3.5.3 1 .6 1.5.9 1.3.7 2.5 1.4 3.9 1.9.8.3 1.6-.1 1.9-.9.2-.3.1-.7 0-1zm-138.1-67.7-.2.1.2-.1h.1zm47.4 71v-.1-.1z"/><path d="m259.8 69h.1z"/><path d="m185.6 6.1-.2.1z"/><path d="m185.3 6.2-.2.1.2-.1h-.1z"/><path d="m180.8 10.8-.2.1z"/><path d="m200.4 299.7c-.6-.4-1.3-.7-1.9-1.1-.8-.6-1.5-1.2-2.2-2s-1.4-1.7-2.1-2.6c-.4-.5-.8-1-1.2-1.5-.3-.4-.7-.8-1-1.1-.4-.4-.7-.8-1.1-1.2-.5-.5-.9-.9-1.4-1.4l-2.3-2.4c-.8-.8-1.5-1.6-2.3-2.4-.7-.8-1.5-1.5-2.2-2.2-1.5-1.5-3.2-2.9-4.9-4.2-1.4-1-2.9-1.9-4.4-2.8-.9-.5-1.7-1-2.6-1.5s-1.7-.9-2.6-1.4c-.7-.3-1.3-.6-2-1-.8-.4-1.6-.7-2.4-1-1.4-.5-2.8-1-4.2-1.4-1.6-.4-3.2-.7-4.8-.9-1.5-.2-3-.2-4.5-.2-1.6.1-3.2.3-4.7.7-1.4.4-2.9.8-4.2 1.4-1.3.5-2.6 1.1-3.8 1.8-1.9 1-3.8 2.1-5.7 3.1-2.5 1.4-5 2.8-7.5 4.1s-4.9 2.6-7.4 3.9c-1.6.8-3.1 1.5-4.7 2.2-.4.1-.7.3-1.1.4-.6.2-1.1.4-1.7.5-.9.3-1.8.5-2.7.7-1.4.3-2.7.4-4.1.3-1.3-.1-2.6-.4-3.9-.8-1.7-.7-3.4-1.5-5-2.4-.9-.4-1.7-.9-2.5-1.4-1.9-1-3.7-2-5.6-3-2-1-3.9-2.1-5.8-3.2-1.9-1-3.7-2.1-5.7-3-.6-.3-1.1-.6-1.7-.8-.4-.2-.9-.4-1.3-.5-.6-.2-1.1-.5-1.7-.7-.5-.2-1-.3-1.5-.5-1-.3-2-.7-3.1-1s-2.1-.6-3.1-.8c-1.1-.3-2.1-.5-3.2-.7s-2.2-.4-3.3-.5c-2.2-.3-4.5-.5-6.7-.6-.7 0-1.5 0-2.2 0-.3 0-.7 0-1 0h-1.9c-1.3 0-2.7.2-4 .4-1.6.3-3.2.7-4.8 1.1-.4.1-.8.2-1.2.4-.5.2-1.1.3-1.6.5-1 .4-2 .7-2.9 1.1-.5.3-1.1.5-1.6.8-1.2.6-2.5 1.3-3.6 2-1 .7-2 1.4-3 2.2-.8.6-1.7 1.3-2.5 2-1 .8-1.9 1.6-2.8 2.4s-1.7 1.6-2.5 2.4c-.7.6-1.3 1.3-2 2-.5.5-.9 1-1.4 1.5-.3.4-.6.7-.9 1.1s-.6.7-.9 1.1c-.4.5-.8 1.1-1.1 1.6-.7 1-1.3 1.9-1.9 2.9-.2.3-.4.7-.6 1-.3.5-.6 1-.8 1.5-.7 1.5-1.4 2.9-2 4.5-.7 1.9-1.1 3.8-1.4 5.7s-.3 3.8 0 5.7c.8 3.7 2.9 7 6 9.1 4.8 3.5 10.8 4.2 16.5 4.6l3.2.2c1.1.1 2.2.1 3.3.1 2.2.1 4.5.1 6.7.1 4.3.1 8.5.1 12.8.1 4.2 0 8.3-.3 12.5-.5 4.5-.3 8.9-.6 13.4-.9l7.9-.5c-.7 2.8-1.2 5.6-1.7 8.4-.2 1.2-.4 2.4-.5 3.6-.1.9-.2 1.8-.3 2.7-.3 2.4-.5 4.8-.8 7.2-.1.9-.2 1.9-.2 2.8-.1 1-.2 2-.2 3.1-.1 2.2-.3 4.5-.3 6.7 0 1-.1 2.1-.1 3.1v4c0 2 0 4.1.1 6.1 0 1.2.1 2.4.1 3.6 0 .9.1 1.7.1 2.6.1 2.3.2 4.6.3 7 .1 2 .1 4.1.2 6.1.1 2.1.2 4.3.3 6.4.1.9.1 1.8.2 2.8.1.8.8 1.4 1.6 1.3s1.4-.7 1.3-1.5c-.3-2.1-.3-4.3-.5-6.4-.1-2-.2-4-.3-6.1-.1-4.4-.3-8.7-.5-13.1-.1-2-.1-4.1-.1-6.1s0-4 0-6c0-3.6.2-7.1.4-10.7.2-1.9.3-3.9.5-5.8.3-2.4.5-4.9.8-7.3.1-.8.2-1.7.3-2.5.2-1 .3-2.1.5-3.1.2-1.3.5-2.7.7-4 .3-1.7.7-3.4 1.1-5l2.1-.1c2.1-.1 4.1-.3 6.2-.4s4.1-.1 6.2-.1c2.3-.1 4.5-.1 6.8-.2 2 0 4-.1 6-.2 2.2-.1 4.3-.2 6.5-.4 1.2-.1 2.3-.1 3.5-.2 1-.1 2-.1 3-.2 1.1-.1 2.3-.3 3.4-.4.6-.1 1.3-.2 1.9-.3.1 0 .3 0 .4-.1.3 0 .5-.1.8-.2.1 0 .2 0 .3-.1.9-.2 1.9-.5 2.8-.9s1.7-.8 2.5-1.2c1.1-.6 2.2-1.3 3.1-2.2 1.1-1 1.9-2.3 2.3-3.8.3-.9.5-1.8.6-2.7.1-.6.1-1.3.1-1.9-.1-.8-.4-1.6-.8-2.3-.4-.6-.8-1.2-1.3-1.7s-1-.9-1.5-1.3c-.7-.6-1.5-1.1-2.3-1.6-1.1-.7-2.2-1.3-3.3-1.8-1.4-.6-2.8-1.1-4.2-1.5-1.5-.4-3-.7-4.5-.9-1.1-.2-2.3-.2-3.4-.3-.7 0-1.5 0-2.2 0-2.4 0-4.8.1-7.1.5-.7.1-1.5.3-2.2.4-.6.1-1.2.2-1.8.4l-1.9.5c-.4.1-.8.2-1.2.3l-2 .7c-1 .4-2 .8-3 1.2s-2 .9-3 1.4c-1.4.7-2.7 1.6-4 2.5-1.1.8-2.2 1.7-3.2 2.6-1.1 1.1-2 2.3-2.8 3.5-1 1.6-1.9 3.2-2.7 4.9-.3.7-.7 1.3-1 2-.4 1-.8 2-1.2 3-8.6.6-17.1 1.1-25.7 1.6-2 .1-4.1.2-6.1.3-2.1.1-4.2.1-6.3.1-4.3 0-8.6 0-12.8-.1-2.2-.1-4.4-.1-6.7-.2-.9-.1-1.9-.1-2.8-.2h.1l-3.2-.3c-1.1-.1-2.2-.3-3.3-.5-1.4-.2-2.7-.6-4.1-1-1.4-.5-2.8-1.2-4.1-2-.9-.7-1.8-1.4-2.6-2.3-.7-.8-1.3-1.7-1.8-2.6-.4-.8-.6-1.6-.8-2.4-.2-1.2-.2-2.4-.1-3.6.2-2.2.6-4.3 1.3-6.4.6-1.7 1.4-3.4 2.3-5 .3-.6.6-1.2 1-1.7.4-.6.8-1.3 1.2-1.9.6-.9 1.3-1.8 1.9-2.7.4-.5.8-1.1 1.3-1.6.5-.6 1-1.1 1.6-1.7.8-.9 1.6-1.7 2.5-2.5s1.8-1.6 2.7-2.5c.6-.5 1.3-1 1.9-1.6s1.3-1 1.9-1.5 1.3-1 2-1.5c1.3-1 2.7-1.8 4.1-2.6.4-.2.8-.4 1.1-.5.4-.2.7-.4 1.1-.5l1.5-.6c.3-.1.7-.3 1-.4.9-.3 1.7-.6 2.6-.8 1.2-.3 2.3-.6 3.5-.8 1.5-.3 3-.5 4.5-.5.8 0 1.7 0 2.5-.1 1.2 0 2.4 0 3.5.1.8.1 1.6.1 2.4.2.7.1 1.5.2 2.2.3s1.4.2 2 .3c.5.1 1.1.2 1.6.3.3.1.7.1 1 .2l2.7.6c.7.2 1.4.4 2.1.6s1.4.4 2.1.6c.8.3 1.6.5 2.3.8 1 .4 2 .8 2.9 1.2.5.2.9.5 1.4.7l1.6.8c1 .5 1.9 1 2.9 1.6l2.7 1.5c1.8 1 3.7 2 5.5 3 2 1 3.9 2.1 5.9 3.2 1 .5 2 1.1 3 1.6 2.4 1.3 4.9 2.2 7.6 2.5 2.4.2 4.8 0 7.2-.6.5-.1 1-.2 1.5-.4.6-.2 1.2-.4 1.9-.6l1.5-.6c.4-.2.9-.4 1.3-.6 1.1-.5 2.1-1 3.2-1.5 2-1 4-2.1 5.9-3.1 2.5-1.3 5-2.7 7.4-4 1.4-.8 2.8-1.5 4.2-2.3 1.3-.7 2.5-1.4 3.8-2.1 1.2-.6 2.4-1.1 3.6-1.6 1.3-.5 2.7-.9 4-1.2 2-.4 4-.5 6-.4 1.4.1 2.8.3 4.2.6 1.3.3 2.6.6 3.9 1.1 1.1.4 2.2.8 3.2 1.3l1.8.9c.9.4 1.8.9 2.6 1.3l2.7 1.5c1.2.7 2.4 1.4 3.6 2.2 1.4.9 2.6 1.9 3.9 3 .6.6 1.2 1.2 1.9 1.8.9.9 1.9 1.8 2.8 2.8 1.8 1.8 3.5 3.7 5.3 5.5.5.6 1 1.2 1.5 1.7.6.6 1.1 1.3 1.6 2 .6.8 1.2 1.5 1.9 2.3s1.5 1.6 2.4 2.3c.9.6 1.7 1.2 2.7 1.6.7.4 1.6.1 2-.7.1-.3-.2-1.2-.9-1.6zm-112 16.1c.8-1.6 1.6-3.1 2.6-4.6.4-.6.9-1.2 1.4-1.8s1.1-1.2 1.7-1.7c1.9-1.6 4.1-3 6.3-4.2 1.9-.9 3.8-1.7 5.8-2.4 1.9-.7 3.9-1.2 5.9-1.7 1.4-.3 2.8-.5 4.1-.6 1.2-.1 2.5-.2 3.7-.2 1.3 0 2.6 0 4 .1 1.2.1 2.5.2 3.7.5 1.4.3 2.7.6 4 1.1 2.2.8 4.3 1.9 6.3 3.3.8.5 1.6 1.2 2.3 1.9.3.3.5.7.7 1.1.1.3.2.5.3.8v.4c-.1 1-.3 2.1-.6 3-.2.5-.4 1-.7 1.4-.4.5-.7.9-1.2 1.3-.8.7-1.8 1.3-2.7 1.8-1.3.7-2.6 1.2-4 1.6-.1 0-.2 0-.3.1l-.6.1h-.1c-.1 0-.2 0-.4.1-.6.1-1.1.2-1.7.3-1.1.2-2.2.3-3.3.4-1 .1-2.1.2-3.2.2-4.3.3-8.5.6-12.8.7-4.4.1-8.7.3-13.1.4-3.4.1-6.7.3-10 .5.6-1.3 1.2-2.6 1.9-3.9z"/></g></g><g fill="#fff"><text font-family="'Tajawal-Regular'" font-size="25" transform="translate(151.551 575)">أهلاً بكم في</text><text font-family="'Tajawal-Medium'" font-size="31" transform="translate(47.056 623)">تطبيق عيادة فايا للتجميل</text></g></svg>